<?xml version="1.0" encoding="UTF-8"?>
<svg id="Layer_2" data-name="Layer 2" xmlns="http://www.w3.org/2000/svg" viewBox="0 0 128.68 42.85">
  <defs>
    <style>
      .cls-1 {
        fill: #fff;
      }

      .cls-1, .cls-2 {
        stroke-width: 0px;
      }

      .cls-2 {
        fill: #b41e49;
      }
    </style>
  </defs>
  <g id="Layer_2-2" data-name="Layer 2">
    <g>
      <rect class="cls-2" x="0" width="128.68" height="42.85" rx="1.05" ry="1.05"/>
      <g>
        <g>
          <g>
            <path class="cls-1" d="M32.42,29.6l1.46-3.2c.15-.32.29-.66.84-.66,0,0-.21.33-.36.66l-2.17,4.77-2.17-4.77c-.15-.33-.36-.66-.36-.66.99,0,1.15.34,1.3.66l1.46,3.2Z"/>
            <path class="cls-1" d="M36.35,30.81h-.86v-4.28c0-.36,0-.79.93-.79,0,0-.07.43-.07.79v4.28Z"/>
            <path class="cls-1" d="M39.2,26.16c-.69,0-1.01.36-1.01.76,0,.2.1.39.29.48l1.79.87c.54.26.79.7.79,1.14,0,.71-.66,1.44-1.86,1.44-.57,0-1.07-.03-1.74-.04l.38-.54c.43.1.94.16,1.35.16.79,0,1.16-.4,1.16-.77,0-.21-.11-.41-.34-.51l-1.75-.86c-.48-.24-.73-.69-.73-1.16,0-.68.54-1.36,1.67-1.36.51,0,1.02.03,1.61.04,0,.05,0,.48-.52.48-.43-.07-.76-.13-1.09-.13Z"/>
            <path class="cls-1" d="M42.8,28.1h2.32v-1.57c0-.36,0-.79.93-.79,0,0-.07.43-.07.79v3.58c0,.36.07.78.07.78-.93,0-.93-.43-.93-.79v-1.57h-2.32v1.57c0,.36,0,.79-.93.79,0,0,.07-.42.07-.78v-3.58c0-.36-.07-.79-.07-.79.93,0,.93.43.93.79v1.57Z"/>
            <path class="cls-1" d="M50.6,25.45l1.91,4,1.06-3.03c.11-.34.26-.69.76-.69,0,0-.17.34-.29.69l-1.66,4.74-1.99-4.21-1.89,4.21-1.66-4.74c-.12-.34-.29-.69-.29-.69.95,0,1.06.35,1.19.69l1.06,3.03,1.8-4.01Z"/>
            <path class="cls-1" d="M57.13,28.95h-1.76l-.58,1.27c-.15.32-.29.66-.84.66,0,0,.21-.33.36-.66l2.17-4.77,2.17,4.77c.15.33.36.66.36.66-.99,0-1.15-.34-1.3-.66l-.59-1.27ZM55.57,28.52h1.37l-.69-1.5-.69,1.5Z"/>
            <path class="cls-1" d="M64.28,29.6l1.46-3.2c.15-.32.29-.66.84-.66,0,0-.21.33-.36.66l-2.17,4.77-2.17-4.77c-.15-.33-.36-.66-.36-.66.99,0,1.15.34,1.3.66l1.46,3.2Z"/>
            <path class="cls-1" d="M68.21,30.81h-.86v-4.28c0-.36,0-.79.93-.79,0,0-.07.43-.07.79v4.28Z"/>
            <path class="cls-1" d="M71.27,25.78c1.48,0,2.47,1.11,2.47,2.53s-.99,2.54-2.47,2.54c-.67,0-1.22-.04-1.77-.04,0,0,.07-.39.07-.71v-3.57c0-.36-.07-.71-.07-.71.59,0,1.18-.04,1.77-.04ZM70.43,26.18v4.26c.31,0,.58.02.85.02,1.1,0,1.57-.93,1.57-2.15s-.56-2.15-1.57-2.15c-.31,0-.58.02-.85.02Z"/>
            <path class="cls-1" d="M76.81,27.97c-.14.19-.19.57-.19.81v2.04h-.86v-2.04c0-.24-.05-.5-.19-.69l-1.16-1.54c-.21-.28-.74-.8-.74-.8,1.18,0,1.41.31,1.65.63l1.07,1.41,1.08-1.44c.22-.3.45-.6,1.15-.6,0,0-.43.41-.64.69l-1.16,1.54Z"/>
            <path class="cls-1" d="M81.42,28.95h-1.76l-.58,1.27c-.15.32-.29.66-.84.66,0,0,.21-.33.36-.66l2.17-4.77,2.17,4.77c.15.33.36.66.36.66-.99,0-1.15-.34-1.3-.66l-.59-1.27ZM79.86,28.52h1.37l-.69-1.5-.69,1.5Z"/>
            <path class="cls-1" d="M87.35,27.16c0,.85-.77,1.41-1.69,1.41-.31,0-.62-.02-.93-.02v1.54c0,.36,0,.79-.93.79,0,0,.07-.43.07-.79v-3.57c0-.36-.07-.71-.07-.71h1.04c.16,0,.28,0,.41,0,.13,0,.26,0,.41,0,.91,0,1.69.51,1.69,1.36ZM84.74,26.17v2.05c.28.01.59.02.79.02.52,0,.96-.39.96-1.08s-.44-1.01-.96-1.01c-.26,0-.51.01-.79.01Z"/>
            <path class="cls-1" d="M89.03,30.38h1.93c.5,0,.5.43.5.43h-3.36s.07-.35.07-.71v-3.58c0-.36-.07-.71-.07-.71h3.36s0,.43-.5.43h-1.93v1.86h1.79v.43h-1.79v1.86Z"/>
            <path class="cls-1" d="M93.24,30.38h1.93c.5,0,.5.43.5.43h-3.36s.07-.35.07-.71v-3.58c0-.36-.07-.71-.07-.71h3.36s0,.43-.5.43h-1.93v1.86h1.79v.43h-1.79v1.86Z"/>
            <path class="cls-1" d="M96.03,25.81h4.78s0,.44-.36.44c-.45,0-.69-.03-1.21-.03h-.36v4.58h-.93v-4.58h-.36c-.52,0-.76.02-1.21.03-.35,0-.36-.41-.36-.44Z"/>
            <path class="cls-1" d="M102.24,28.1h2.32v-1.57c0-.36,0-.79.93-.79,0,0-.07.43-.07.79v3.58c0,.36.07.78.07.78-.93,0-.93-.43-.93-.79v-1.57h-2.32v1.57c0,.36,0,.79-.93.79,0,0,.07-.42.07-.78v-3.58c0-.36-.07-.79-.07-.79.93,0,.93.43.93.79v1.57Z"/>
            <path class="cls-1" d="M109.16,28.95h-1.76l-.58,1.27c-.15.32-.29.66-.84.66,0,0,.21-.33.36-.66l2.17-4.77,2.17,4.77c.15.33.36.66.36.66-.99,0-1.15-.34-1.3-.66l-.59-1.27ZM107.59,28.52h1.37l-.69-1.5-.69,1.5Z"/>
            <path class="cls-1" d="M114.92,31.17l-1.91-4-1.06,3.03c-.11.34-.26.69-.76.69,0,0,.17-.34.29-.69l1.66-4.74,1.99,4.21,1.89-4.21,1.66,4.74c.12.34.29.69.29.69-.95,0-1.06-.35-1.19-.69l-1.06-3.03-1.8,4.01Z"/>
          </g>
          <g>
            <path class="cls-1" d="M37.35,7.3l-6.47,14.22c-.3.65-.87,1.63-1.23,2.21h.16c1.32,0,1.93-.62,2.34-1.33.13-.23.24-.47.35-.7l.03-.07,1.6-3.52h5.03l1.61,3.52c.46.99.98,2.1,4.1,2.1h.17s-.78-1.23-1.23-2.21l-6.47-14.22ZM34.7,16.87l1.95-4.28,1.96,4.28h-3.91Z"/>
            <path class="cls-1" d="M63.68,7.3l-5.64,12.53-5.94-12.53-4.94,14.13c-.36,1.02-1,2.3-1,2.3h.12c1.74,0,2.2-1.33,2.5-2.21l2.97-8.44,5.67,11.86,5.33-11.86,2.97,8.48c.37,1.02.78,2.17,3.76,2.17h.12s-.63-1.28-.99-2.3l-4.94-14.13Z"/>
            <path class="cls-1" d="M85.83,10.31v13.37h3.06v-13.37c0-1.03.21-2.29.21-2.3l.05-.3h-.3c-3.02,0-3.02,1.5-3.02,2.6Z"/>
            <path class="cls-1" d="M104.56,9.29c1.04,0,1.32-.99,1.32-1.57h-14.77c0,.58.28,1.57,1.32,1.57.55,0,1-.02,1.43-.04.64-.02,1.25-.04,2.16-.04h.83v14.46h3.27v-14.46h.83c.91,0,1.52.02,2.16.04.43.02.88.03,1.44.04Z"/>
            <path class="cls-1" d="M82.1,22l-4.07-5.44c2.47-.43,4.44-2.22,4.3-4.85-.14-2.49-2.38-4-5.1-4-2.02,0-3.89.09-5.75.09,0,0,.21,1.06.21,2.13l-.08,11.46c0,1.06-.21,2.34-.21,2.34,2.77,0,2.77-1.28,2.77-2.34l.08-12.46c1.13,0,1.83-.05,2.55-.04,1.61,0,2.88,1.15,3.06,2.87.2,1.89-.46,3.3-1.83,3.92-1.01.41-3.2.35-3.2.35l4.49,6.04c.64.85,1.51,1.66,4.29,1.66,0,0-.77-.72-1.51-1.72Z"/>
            <path class="cls-1" d="M117.72,21.51l-6.47-14.22-6.47,14.22c-.3.65-.87,1.63-1.23,2.21h.16c1.32,0,1.93-.62,2.34-1.33.13-.23.24-.47.35-.7l.03-.07,1.6-3.52h5.03l1.61,3.52c.46.99.98,2.1,4.1,2.1h.17s-.78-1.23-1.23-2.21ZM108.6,16.87l1.95-4.28,1.96,4.28h-3.91Z"/>
          </g>
          <g>
            <path class="cls-1" d="M21.03,19.29l-.3.1c.09.05.22.1.4.1.01,0,.02,0,.03,0,.03,0,.05,0,.08,0h4.28c.05-.12.09-.24.13-.36h-4.25c-.11.06-.23.11-.37.16Z"/>
            <path class="cls-1" d="M16.27,19.49s.02,0,.03,0c.18,0,.31-.04.4-.1l-.3-.1c-.14-.04-.26-.1-.37-.15h-4.27c.04.12.08.24.13.36h4.3s.05,0,.07,0Z"/>
            <path class="cls-1" d="M21.26,19.82c-.17.11-.51.21-.84.21h0s-.06,0-.09-.02c-.1.06-.34.13-.56.16h5.45c.06-.12.12-.24.17-.36h-4.12s0,0,0,0Z"/>
            <path class="cls-1" d="M17.12,20.02s-.05.02-.08.02h-.01c-.34,0-.68-.11-.84-.21,0,0,0,0-.01,0h-4.14c.05.12.11.24.17.36h5.47c-.21-.02-.45-.09-.56-.16Z"/>
            <path class="cls-1" d="M10.57,16.83c-.19.05-.33.15-.44.31-.37.56-.1,1.69.12,2.6.08.33.15.63.18.86,0,.04.01.08.02.12.04.28.08.6.02.8l-.02.06h.06c.2.06.46.26.68.43.03.03.07.05.1.08.18.14.41.36.66.59.67.63,1.49,1.41,2.15,1.41.02,0,.03,0,.05,0,.19-.01.35-.09.49-.23-.05.19-.04.37.05.53.3.6,1.42.93,2.32,1.2.32.1.62.19.84.28.04.02.08.03.12.05.26.11.56.23.7.38l.04.05.04-.05c.14-.15.44-.27.71-.38.04-.02.08-.03.12-.05.21-.09.52-.18.84-.28.9-.27,2.01-.6,2.32-1.2.09-.17.1-.35.05-.54.14.14.3.21.49.22.02,0,.03,0,.05,0,.66,0,1.48-.78,2.15-1.41.24-.23.47-.45.66-.59.03-.02.07-.05.1-.08.22-.17.48-.37.68-.42h.06s-.02-.08-.02-.08c-.06-.2-.02-.52.02-.8,0-.04.01-.08.02-.13.03-.23.1-.54.18-.86.22-.91.48-2.05.12-2.6-.1-.16-.25-.26-.44-.31.19-.05.34-.15.44-.31.37-.56.1-1.69-.12-2.6-.08-.33-.15-.63-.18-.86,0-.04-.01-.08-.02-.13-.04-.28-.08-.6-.02-.8l.02-.06h-.06c-.2-.06-.46-.26-.68-.43-.03-.03-.07-.05-.1-.08-.18-.14-.41-.36-.66-.59-.67-.63-1.49-1.41-2.15-1.41-.02,0-.03,0-.05,0-.19.01-.35.09-.49.23.05-.19.04-.37-.05-.53-.3-.6-1.42-.93-2.32-1.2-.32-.1-.62-.19-.84-.28-.04-.02-.08-.03-.12-.05-.26-.11-.56-.23-.71-.38l-.04-.05-.04.05c-.14.15-.44.27-.71.38-.04.02-.08.03-.12.05-.21.09-.52.18-.84.28-.9.27-2.01.6-2.32,1.2-.09.17-.1.35-.05.54-.14-.14-.3-.21-.49-.22-.67-.04-1.51.76-2.2,1.41-.24.23-.47.45-.66.59-.03.02-.07.05-.1.08-.22.18-.48.37-.68.42h-.06s.02.08.02.08c.06.2.02.52-.02.8,0,.04-.01.08-.02.12-.03.23-.1.54-.18.86-.22.91-.48,2.05-.12,2.6.1.16.25.26.44.31ZM18.71,8.82c4.4,0,7.98,3.59,7.98,8.01s-3.58,8.01-7.98,8.01-7.98-3.59-7.98-8.01,3.58-8.01,7.98-8.01Z"/>
            <path class="cls-1" d="M15.8,23.54h5.81c.25-.11.49-.23.72-.36h-7.25c.23.13.47.25.72.36Z"/>
            <path class="cls-1" d="M18.71,24.14c.71,0,1.39-.1,2.04-.29h-4.08c.65.19,1.33.29,2.04.29Z"/>
            <path class="cls-1" d="M20.48,16.84s-.2-.09-.38-.09c-.08,0-.16,0-.23.03-.27.07-.5.35-.5.5.09.11.19.22.29.31.22.21.42.42.43.71,0,.13-.01.26-.06.38-.1.26-.33.4-.54.49.62-.03,1.07-.17,1.3-.41.16-.16.23-.37.21-.62-.01-.18-.14-.35-.26-.52-.18-.24-.36-.48-.25-.77,0,0,0,0,0,0Z"/>
            <path class="cls-1" d="M21.32,17c-.1,0-.24.01-.38.06-.16.06-.26.12-.3.18.05.1.12.2.2.3.13.18.27.37.29.58.02.29-.06.53-.24.72-.22.23-.58.37-1.07.43.04,0,.07,0,.11,0,.73,0,1.32-.17,1.66-.47.21-.19.31-.41.3-.67,0-.17-.11-.31-.2-.44-.13-.18-.27-.38-.11-.66-.04-.01-.13-.03-.25-.03Z"/>
            <path class="cls-1" d="M19.91,18.63c.04-.11.06-.21.05-.33-.01-.24-.19-.43-.39-.63-.07-.07-.42-.41-.55-.71l-.02-.05c-.09-.21-.15-.35-.29-.35-.14,0-.21.14-.29.36,0,0-.24.45-.58.77-.19.18-.36.37-.37.6,0,.12.01.22.05.33.15.38.69.55,1.17.55h.02s0,0,0,0h.02c.48,0,1.03-.17,1.17-.55Z"/>
            <path class="cls-1" d="M16.44,18.13c-.02.25.05.46.21.62.24.24.69.38,1.3.41-.21-.09-.44-.23-.54-.49-.05-.12-.07-.25-.06-.38.01-.29.21-.5.43-.71.1-.1.2-.21.29-.31,0-.14-.22-.43-.5-.5-.07-.02-.15-.03-.23-.03-.18,0-.33.05-.38.09,0,0,0,0,0,0,.11.28-.07.53-.25.77-.12.17-.25.34-.26.52Z"/>
            <path class="cls-1" d="M15.56,18.13c-.01.26.09.48.3.67.34.3.93.47,1.66.47.03,0,.07,0,.11,0-.49-.06-.85-.2-1.07-.43-.18-.19-.26-.43-.24-.72.01-.21.15-.4.29-.58.07-.1.15-.2.2-.3-.04-.07-.14-.13-.3-.18-.14-.05-.28-.06-.38-.06-.12,0-.21.01-.25.03.16.28.02.48-.11.66-.09.13-.19.27-.2.44Z"/>
            <path class="cls-1" d="M17.26,19.57s.05-.03.07-.05c.05-.03.07-.06.1-.09.01-.01.03-.03.04-.05-.14,0-.28,0-.42-.02h0s-.02,0-.03.01c-.02.01-.03.03-.05.04-.12.1-.3.26-.68.26h-.01c.13.07.42.17.73.17h0s.03-.01.04-.02c0-.02,0-.04,0-.05.02-.09.1-.14.2-.2Z"/>
            <path class="cls-1" d="M17.73,20.01c.08,0,.15,0,.2-.03.04-.01.07-.03.08-.05-.01-.02-.03-.03-.04-.05-.09-.13-.13-.35.02-.51,0,0,0,0,0,0-.05,0-.09,0-.14.01-.23.03-.28.08-.33.14-.03.03-.06.07-.12.11-.02.02-.05.03-.07.05-.07.05-.14.09-.15.13,0,.01,0,.03.01.04.06.09.3.16.53.16Z"/>
            <path class="cls-1" d="M18.72,19.31h0c-.34,0-.54.05-.63.15-.11.11-.07.26,0,.36.01.02.03.04.05.06h.01c.05.05.11.07.17.1.14.05.3.11.41.36.11-.25.27-.3.41-.36.06-.02.12-.05.17-.09h.01s.04-.05.05-.07c.07-.1.1-.25,0-.36-.09-.1-.29-.15-.63-.15h0Z"/>
            <path class="cls-1" d="M19.43,19.93s.04.03.08.05c.05.02.12.03.2.03.23,0,.47-.07.53-.16.01-.02.02-.03.01-.04,0-.04-.08-.08-.15-.13-.02-.01-.05-.03-.07-.05-.06-.04-.09-.08-.12-.11-.06-.06-.1-.11-.33-.14-.05,0-.09,0-.14-.01,0,0,0,0,0,0,.15.17.11.38.02.51-.01.02-.02.03-.04.05Z"/>
            <path class="cls-1" d="M20.41,19.85h0c.31,0,.61-.1.73-.17h-.01c-.38,0-.56-.16-.68-.26-.02-.01-.03-.03-.05-.04,0,0-.01,0-.03-.01h0c-.14.01-.28.02-.42.02.02.01.03.03.04.05.03.03.06.06.1.09.02.02.04.03.07.05.1.06.18.11.2.2,0,.02,0,.03,0,.05,0,0,0,.02.04.02Z"/>
            <path class="cls-1" d="M17.17,22.2s.55.16.64.18c.16.02.34.02.47-.1,0,0,.02-.02.03-.03.02-.03.04-.06.06-.08.07-.17-.1-.38-.61-.5-.63-.15-1.59-.17-2.26.02-.38.11-.54.27-.54.43,0,.04.01.09.04.13h0c.04.08.12.15.22.21.05.03.11.06.17.08h0c.11.04.24.08.38.11.38.08.84.1,1.23.08.57-.03.53-.21.4-.28-.03-.02-.17-.09-.27-.17-.07-.06-.03-.12.05-.08Z"/>
            <path class="cls-1" d="M17.6,22.47s0,.02,0,.03c0,.03,0,.07,0,.1-.05.19-.3.24-.52.26h5.74c.17-.11.33-.23.48-.36h-5.57s-.08-.02-.14-.03Z"/>
            <path class="cls-1" d="M15.73,22.79c-.15-.03-.28-.07-.39-.11h0s0,0,0,0c-.07-.03-.13-.06-.19-.09-.04-.02-.07-.05-.1-.07h-.94c.16.13.32.25.48.36h1.72c-.2-.02-.4-.04-.57-.08Z"/>
            <path class="cls-1" d="M19.89,20.83c-.02-.07-.01-.14.02-.2.02-.03.06-.06.1-.09.04-.02.09-.04.14-.06h-7.78c.07.12.15.24.22.36h7.3s0,0,0-.01Z"/>
            <path class="cls-1" d="M22.62,20.6c.29.07.51.16.67.24h1.53c.08-.12.15-.24.22-.36h-3.01c.21.03.42.07.6.12Z"/>
            <path class="cls-1" d="M23.55,21.22c0,.07-.05.15-.12.22l-.02.02s-.05.04-.08.06h.99c.1-.12.19-.24.28-.36h-1.04s0,.04,0,.06Z"/>
            <path class="cls-1" d="M15.54,21.52c.31-.08.69-.12,1.1-.12s.82.04,1.15.12h1.4c-.03-.08-.03-.15-.02-.19.02-.06.05-.12.09-.17h-6.45c.09.12.19.24.28.36h2.45Z"/>
            <path class="cls-1" d="M14.81,22.12c0-.08.02-.19.11-.28h-1.55c.12.12.24.24.36.36h1.08s0-.05,0-.08Z"/>
            <path class="cls-1" d="M22.15,21.94h-.05c-.44.1-.89.14-1.31.14s-.96-.05-1.3-.25h-1.07s.05.06.07.09c.04.09.05.18.03.27h5.16c.13-.12.25-.24.36-.36h-1.44c-.14.04-.28.08-.44.11Z"/>
            <path class="cls-1" d="M20.63,21.18c-.07,0-.17-.01-.26-.03-.1-.02-.22-.03-.34-.04-.03,0-.06,0-.09,0-.15,0-.28.02-.39.04-.15.04-.38.23-.12.45.22.22.7.34,1.37.34.41,0,.85-.05,1.28-.13h.05c.55-.12.99-.29,1.19-.46l.02-.02s.08-.09.08-.13c0-.07-.05-.26-.82-.46-.46-.12-1.08-.19-1.61-.19h-.03c-.48,0-.75.06-.86.12-.03.01-.04.03-.05.04-.01.02-.02.05,0,.07.08.18.38.23.66.23.16,0,.15.07.12.11-.05.05-.12.06-.17.06Z"/>
            <path class="cls-1" d="M24.83,18.89l-1.81-.16s-.01.1-.02.14l1.81.16s.01-.1.02-.14Z"/>
            <path class="cls-1" d="M24.77,17.29l-1.8.32s.02.09.02.14l1.8-.32s-.01-.09-.02-.14Z"/>
            <path class="cls-1" d="M22.64,16.53s.04.09.06.13l1.66-.78s-.04-.09-.06-.13l-1.66.78Z"/>
            <path class="cls-1" d="M23.53,14.51s-.06-.08-.09-.11l-1.4,1.18s.06.08.09.11l1.4-1.18Z"/>
            <path class="cls-1" d="M22.44,13.44s-.08-.06-.12-.09l-1.07,1.49s.08.06.11.09l1.07-1.49Z"/>
            <path class="cls-1" d="M20.45,14.38l.66-1.71s-.09-.04-.13-.05l-.66,1.71s.09.04.13.06Z"/>
            <path class="cls-1" d="M12.66,19.03l1.79-.15s-.01-.1-.02-.14l-1.79.15s.01.1.02.14Z"/>
            <path class="cls-1" d="M14.47,17.61l-1.77-.32s-.02.09-.02.14l1.77.32s.01-.1.02-.14Z"/>
            <path class="cls-1" d="M13.11,15.89l1.64.77s.04-.09.06-.13l-1.64-.77s-.04.09-.06.13Z"/>
            <path class="cls-1" d="M15.41,15.58l-1.39-1.17s-.06.08-.09.11l1.39,1.17s.06-.08.09-.11Z"/>
            <path class="cls-1" d="M16.03,14.96s.07-.06.11-.09l-1.08-1.47s-.08.06-.11.09l1.08,1.47Z"/>
            <path class="cls-1" d="M16.95,14.4l-.74-1.67s-.09.04-.13.06l.74,1.67s.09-.04.13-.06Z"/>
            <path class="cls-1" d="M23.03,18.31l3.17-.14s0-.1,0-.14l-3.17.14s0,.1,0,.14Z"/>
            <path class="cls-1" d="M22.88,17.2l3.03-.96s-.03-.09-.04-.14l-3.03.96s.03.09.04.14Z"/>
            <path class="cls-1" d="M22.44,16.16l2.68-1.71s-.05-.08-.08-.12l-2.68,1.71s.05.08.07.12Z"/>
            <path class="cls-1" d="M23.91,12.92s-.07-.07-.1-.1l-2.15,2.35s.07.07.1.1l2.15-2.35Z"/>
            <path class="cls-1" d="M22.39,11.8s-.08-.05-.13-.07l-1.49,2.81s.08.05.12.07l1.5-2.81Z"/>
            <path class="cls-1" d="M14.42,18.17l-3.14-.14s0,.1,0,.14l3.14.14s0-.1,0-.14Z"/>
            <path class="cls-1" d="M14.6,17.06l-3.01-.95s-.03.09-.04.14l3.01.95s.03-.09.04-.14Z"/>
            <path class="cls-1" d="M15.08,16.03l-2.66-1.7s-.05.08-.08.12l2.67,1.7s.05-.08.07-.12Z"/>
            <path class="cls-1" d="M15.74,15.22l-2.17-2.3s-.07.07-.1.1l2.18,2.3s.07-.07.1-.1Z"/>
            <path class="cls-1" d="M14.81,11.95l1.6,2.74s.08-.05.12-.08l-1.6-2.74s-.08.05-.12.07Z"/>
            <path class="cls-1" d="M13.63,12.04l-.11-.09-.17.2s-.05.09-.05.14c0,.05.02.1.06.13.05.04.11.07.2.09.09.02.18.03.3.02v-.06c-.06,0-.12,0-.18-.02-.06-.02-.1-.04-.13-.07-.03-.02-.05-.06-.05-.09s0-.07.03-.1l.11-.13Z"/>
            <path class="cls-1" d="M14.45,10.43s.05-.02.07-.02c.03,0,.05,0,.07,0l.26.11s0-.06-.11-.12c-.06-.03-.1-.05-.12-.05-.06-.03-.11-.04-.17-.04-.06,0-.1,0-.14.03-.02.02-.04.03-.05.04l.14.1s.04-.03.06-.05Z"/>
            <path class="cls-1" d="M15.17,10.16s.04-.02.06-.03c.03-.02.08-.02.14-.02.06,0,.12.01.19.03l.09-.04-.24-.21s-.07-.06-.12-.07c-.04-.01-.08,0-.12,0-.04.02-.07.04-.09.06l.14.1s0-.02.02-.03c.02-.01.03-.02.04-.03.02,0,.05,0,.07,0,.03.01.06.03.09.06l.14.1h-.02c-.14-.03-.24-.06-.31-.07-.08-.01-.14-.01-.18,0-.02,0-.03.01-.05.02-.01,0-.02.02-.03.03l.13.11s.02-.02.04-.03Z"/>
            <path class="cls-1" d="M13.59,11.74s.01,0,.02,0c.01,0,.02.01.03.02.02.02.03.06.02.11-.01.05-.04.09-.08.13.09.06.19.09.28.1.09,0,.17-.01.22-.06.02-.02.04-.05.06-.08.02-.03.03-.07.03-.11l.11.12.18-.04-.5-.53c.08-.07.15-.13.23-.19l.39.49.19-.02-.45-.58c.08-.07.17-.13.26-.19l.12.18-.07.04s-.02.02-.02.03c0,.01,0,.02,0,.03.02.03.07.05.15.07.08.02.13.01.17,0,.01,0,.02-.02.03-.03,0-.02,0-.03,0-.04l-.24-.37c.06-.04.12-.08.18-.12l.36.55h.18s-.4-.63-.4-.63c.18-.11.37-.21.56-.31l.1.2-.32.16s-.03.02-.04.04c0,.02,0,.04,0,.05.02.04.06.07.11.1.06.03.1.03.13.02,0,0,.01-.01.02-.02,0,0,0-.02,0-.03l-.03-.06s0-.02,0-.03c0-.01,0-.02.01-.02l.18-.09.13.25h.18s-.33-.65-.33-.65c.2-.09.41-.18.62-.25l.09.24c-.06-.03-.11-.06-.16-.07-.05-.01-.09-.01-.12,0-.06.02-.1.06-.13.11-.03.05-.03.11-.01.16.02.06.07.11.15.15.08.04.15.05.21.03.03,0,.05-.03.07-.05.03-.02.05-.06.07-.09l.05.14.18.04-.12-.32s.04-.08.06-.11c.03-.03.06-.05.09-.06.02,0,.03,0,.05,0,.02,0,.03.02.04.04.01.03.02.07.01.12,0,.05-.02.1-.03.14l.17.04c.03-.1.02-.2,0-.28-.02-.06-.07-.11-.13-.15-.07-.04-.13-.06-.17-.04-.02,0-.04.02-.06.04-.02.02-.05.04-.07.07l-.07-.19c.16-.05.32-.1.48-.14l-.04-.03h0s0,0,0,0l-.1-.09c-1.56.42-2.93,1.34-3.9,2.57l.16.04c.15-.19.32-.38.49-.55ZM16.38,10.41s-.06.06-.09.07c-.02,0-.04,0-.06,0-.02,0-.03-.02-.04-.04-.01-.04,0-.07,0-.1.01-.03.04-.06.07-.07.03-.01.06-.01.1-.01.04,0,.07.01.11.03-.03.05-.06.09-.09.12ZM13.84,11.5l.2.21c0,.06-.02.12-.03.16s-.04.08-.06.1c-.02.02-.05.04-.08.04-.03,0-.06,0-.09,0,0,0,0,0,0,0,0,0,0,0,0-.01.04-.05.06-.1.07-.14.01-.05,0-.08-.01-.1-.01-.02-.04-.03-.07-.04-.03,0-.07-.02-.11-.02.06-.06.13-.12.19-.18Z"/>
            <path class="cls-1" d="M15.99,9.64s.05,0,.08,0c.03,0,.05,0,.07.02l.23.16s.02-.06-.08-.14c-.05-.04-.09-.07-.1-.08-.05-.04-.1-.06-.16-.08-.06-.01-.1-.02-.15,0-.02,0-.04.02-.06.03l.11.12s.04-.03.07-.03Z"/>
            <path class="cls-1" d="M19.1,10.44s.06-.02.1-.02h.09s-.06-.1-.06-.1h-.08c-.05-.01-.1,0-.14.02-.04.02-.06.06-.07.09,0,.07.01.14.06.19.05.06.11.1.18.1.05,0,.09,0,.12,0,.04,0,.07-.02.11-.04l-.06-.13s-.08.04-.12.06c-.04.01-.08.02-.12.01-.02,0-.04-.01-.06-.04-.02-.02-.02-.05-.02-.07,0-.03.02-.05.05-.07Z"/>
            <path class="cls-1" d="M20.53,10.12s.07-.03.1-.02l.16.04.04-.14-.25-.07c-.05-.01-.1,0-.14.02-.05.02-.08.06-.09.11-.02.06-.02.13,0,.22.02.09.06.18.11.27l.06-.02c-.03-.06-.05-.12-.06-.18,0-.06,0-.11,0-.15,0-.04.03-.07.06-.09Z"/>
            <path class="cls-1" d="M23.63,11.46c-.06.01-.09.05-.1.14-.01.08,0,.18.03.28-.07.02-.13.02-.2,0,.01-.03.02-.05.02-.06,0-.02,0-.03-.01-.04-.02-.02-.04-.02-.06-.02-.03,0-.05.02-.07.04-.02.02-.03.05-.02.09,0,.04.03.07.06.1l-.05.25.09.03v-.25c.12.03.21.04.3.02.09,0,.16-.04.21-.09.09-.1.14-.28.01-.42-.04-.04-.1-.07-.2-.06ZM23.77,11.69s-.02.07-.05.1c-.02.03-.05.04-.07.06-.02.01-.04.02-.05.02-.01-.05-.02-.1-.01-.15,0-.04.01-.07.03-.09.02-.02.04-.03.07-.04.02,0,.04,0,.06.02.02.02.03.05.02.09Z"/>
            <path class="cls-1" d="M23.41,12.63s-.09-.03-.13-.07c-.06-.07-.11-.14-.14-.21-.03-.07-.05-.13-.04-.18h-.06c0,.08,0,.16.04.25.03.09.08.17.15.25.05.06.1.09.16.1.06.01.12,0,.16-.04.04-.03.06-.08.06-.15,0-.07,0-.12-.04-.16-.02-.02-.04-.04-.07-.05-.03-.01-.06-.02-.1-.02v.14s.05,0,.07,0c.03,0,.05.02.06.03s.02.03.02.04c0,.01,0,.03-.01.04-.04.03-.08.04-.13.03Z"/>
            <path class="cls-1" d="M17.72,10.24c.08.06.16.08.24.07.06,0,.1-.03.14-.08.04-.05.05-.1.05-.16,0-.02,0-.05-.02-.07,0-.02-.02-.04-.04-.06.04.02.07.04.1.05.03.01.06.02.09.01.03,0,.06-.01.07-.02l.02.25.17.07-.07-.73c.1,0,.19,0,.29,0,.01,0,.03,0,.04,0v.29s-.07,0-.07,0c-.01,0-.02,0-.03.01,0,0-.02.02-.02.03,0,.03.03.07.08.14s.1.1.13.1c0,0,.02,0,.02-.01,0-.01.01-.02.01-.04v-.07s.27.01.27.01v.2s.15.11.15.11l.04-.74c.22.02.45.05.67.09l-.02.12-.23-.04c-.06,0-.11,0-.15.03-.04.03-.07.07-.08.11-.01.07,0,.14.02.22.02.08.06.17.12.25l.06-.03c-.04-.05-.07-.11-.08-.16-.01-.06-.02-.11,0-.16,0-.04.03-.07.06-.09.03-.02.07-.03.11-.03l.16.03-.06.37.14.13.12-.73c.42.09.82.21,1.21.36l-.08.22c-.02-.06-.05-.11-.09-.16-.04-.05-.08-.08-.12-.09-.07-.03-.13-.03-.19,0-.06.02-.1.06-.12.11-.02.06-.01.14.03.23.04.09.1.15.16.17.04.01.07.02.11.02.04,0,.08-.01.12-.03l-.05.13.11.16.26-.69c.1.04.2.09.3.13l-.14.26-.05-.02s-.02,0-.03,0c-.01,0-.02,0-.03.02-.01.02,0,.08.02.16.03.08.05.13.07.14,0,0,.02,0,.03,0,.01,0,.02-.02.03-.03l.03-.06.24.12-.09.17.09.17.35-.65c.09.05.17.1.25.15l-.35.53.08.18.41-.62c.17.12.34.24.51.37l-.14.18-.28-.22s-.03-.02-.05-.01c-.02,0-.04.01-.05.03-.03.04-.04.08-.04.14,0,.06.01.1.04.12,0,0,.02,0,.02,0,.01,0,.02,0,.03-.01l.04-.05s.02-.01.03-.02c.01,0,.02,0,.03,0l.15.12-.18.22.07.17.46-.58c.07.06.13.11.2.17l.11-.11c-1.31-1.18-3.05-1.91-4.95-1.91-.22,0-.44,0-.65.03l.1.15s.07,0,.1,0l.02.21s-.03.04-.05.05c-.02.01-.04.02-.07.02-.05,0-.08,0-.11,0-.03,0-.05,0-.06-.01.02-.02.04-.04.05-.07.01-.03.02-.06.01-.09,0-.06-.04-.11-.12-.16-.07-.05-.14-.07-.21-.06-.03,0-.07.02-.1.04-.04.02-.07.04-.1.07l.09.11s.07-.06.11-.08c.04-.02.07-.03.11-.04.03,0,.06,0,.08.02.02.02.04.04.04.06,0,.04,0,.07-.02.1,0,.03-.03.04-.07.05-.02,0-.05,0-.07,0-.03,0-.06.02-.09.04l.07.13c.06-.01.11-.04.17-.08.01.01.02.02.03.04,0,.01.01.03.01.05,0,.04,0,.08-.03.12-.03.04-.07.05-.11.06-.05,0-.11-.01-.17-.05-.06-.04-.11-.09-.15-.16l-.05.04c.05.1.12.18.21.23ZM21.12,10.44c-.06,0-.11,0-.15-.02-.03-.01-.06-.03-.07-.06-.02-.03-.02-.05,0-.08.01-.04.05-.06.11-.08.06-.01.12,0,.17.01.03,0,.05.03.08.06.02.03.04.06.06.11-.06.03-.12.05-.18.05ZM22,10.35c.08.04.16.08.24.13l-.14.27-.24-.12.14-.27ZM18.95,9.58c.09,0,.18,0,.27.01v.3s-.28-.01-.28-.01v-.3Z"/>
            <path class="cls-1" d="M23.58,12.35l.05.18.52-.51s.08.09.12.13l.04-.19c-.09-.11-.19-.21-.29-.31l-.11.11s.09.09.13.13l-.46.46Z"/>
            <rect class="cls-1" x="23.91" y="12.48" width=".2" height=".2"/>
            <rect class="cls-1" x="24.13" y="12.26" width=".2" height=".2"/>
            <g>
              <path class="cls-1" d="M16.37,31.07l.26.15v-1.23h.26l-.13-.24h-6.59l.15.24h.06v.54l-.29-.13s.05-.06.06-.11.02-.09.02-.13c0-.1-.05-.21-.15-.31-.1-.11-.2-.16-.29-.16s-.17.03-.24.09c-.06.06-.1.13-.1.21,0,.07.03.14.09.21.06.07.14.13.25.18-.1.06-.26.15-.49.25l.21.18c.25-.12.43-.23.54-.32l.24.12-.69.43.19.16.65-.44v.34l.26.15v-1.23h1.58v.21h-.31c-.11,0-.2.04-.27.11-.07.08-.11.17-.11.27,0,.13.07.26.2.41.14.14.27.21.39.21,0,0,.02,0,.05-.01h.04c-.03.1-.08.19-.14.26-.06.07-.13.11-.19.11-.04,0-.06-.01-.08-.04-.02-.02-.03-.05-.04-.08,0-.04.02-.07.05-.09.04-.03.08-.05.13-.07l-.24-.15s-.07.02-.1.05c-.03.02-.04.05-.05.07-.1,0-.17-.01-.22-.04.05-.02.09-.05.12-.09.03-.05.04-.09.04-.14,0-.07-.02-.13-.07-.18-.04-.05-.1-.07-.16-.07-.08,0-.15.02-.21.07-.06.05-.09.12-.09.19,0,.1.06.19.17.26.11.07.25.11.41.11-.02.07.02.15.11.22.1.07.21.11.34.11.07,0,.15-.03.22-.08.07-.05.12-.13.16-.23l.12.25.16-.07-.22-.37s.07-.03.09-.06c.03-.04.04-.07.04-.11,0-.05-.02-.11-.07-.18-.05-.06-.1-.09-.15-.09-.05,0-.1.01-.14.04-.04.03-.06.06-.06.11,0,.04.01.08.04.13-.05.03-.1.04-.13.04-.09,0-.16-.03-.22-.1-.06-.07-.09-.15-.09-.24,0-.07.02-.14.07-.2.05-.05.1-.08.16-.08h.5v-.44h.42v1.06l.26.18v-1.23h1.21v.4c-.07-.08-.14-.15-.23-.19-.09-.05-.17-.07-.24-.07-.12,0-.21.03-.29.1-.08.06-.12.15-.12.24,0,.11.06.23.18.34.12.12.24.17.35.17.06,0,.12-.01.19-.04.06-.03.12-.07.17-.12v.24l.26.18v-1.23h.45v1.06l.26.18v-1.23h1.01v.38h-.59s-.06.01-.08.04c-.02.02-.04.05-.04.08,0,.07.03.15.09.23.06.08.12.12.17.12.02,0,.03,0,.04-.02.01,0,.02-.02.02-.04v-.1s0-.04.02-.05c0-.02.02-.02.04-.02h.32v.47ZM9.94,30.21s-.05.08-.09.1c-.05-.02-.1-.05-.13-.09-.03-.04-.05-.09-.05-.14,0-.04.02-.08.05-.11.04-.03.08-.05.13-.05.04,0,.07.01.09.04.03.03.04.06.04.09,0,.06-.01.12-.04.16ZM11.15,31.06s-.04-.06-.04-.09.01-.07.04-.09c.03-.03.06-.04.09-.04s.07.01.09.04c.03.03.04.06.04.09s-.01.07-.04.09c-.03.03-.06.04-.09.04s-.07-.01-.09-.04ZM14.15,30.7c-.09.04-.17.06-.25.06-.06,0-.11-.02-.15-.05-.04-.03-.06-.07-.06-.11,0-.06.04-.13.12-.18.08-.05.18-.08.27-.08.05,0,.1.02.16.05.05.03.11.07.15.13-.08.08-.16.14-.25.19Z"/>
              <path class="cls-1" d="M16.65,31.38c-.08-.07-.15-.1-.2-.1-.04,0-.08,0-.11.02-.03,0-.06.03-.09.06l.1.16s.05-.03.07-.04c.03-.01.05-.02.08-.02.07,0,.2.11.4.32l.16.16.09-.07c-.12-.13-.28-.29-.49-.49Z"/>
              <path class="cls-1" d="M22.02,29.75h-1.86l.15.24h.29v.5h-.41v-.43c0-.09-.05-.18-.14-.27-.09-.09-.18-.14-.28-.14-.08,0-.14.02-.2.07-.05.05-.08.12-.08.19,0,.02,0,.05,0,.07l-.13-.23h-1.71l.13.24h1.07v.19s-.07.02-.12.05c-.05.04-.09.08-.13.14-.05-.07-.11-.12-.17-.15-.06-.04-.11-.05-.17-.05-.1,0-.18.04-.25.11s-.1.15-.1.25c0,.1.04.21.13.32.08.12.21.24.37.35l.07-.09c-.1-.09-.18-.17-.24-.25-.05-.09-.08-.17-.08-.23,0-.07.02-.13.06-.18.04-.05.09-.07.14-.07.03,0,.06,0,.09.03.03.02.06.04.08.08-.06.13-.09.2-.1.24l.24.1c.03-.13.08-.24.15-.33.06-.08.13-.13.21-.13.04,0,.08.01.11.04.03.02.04.05.04.08,0,.06-.03.14-.09.22-.06.08-.15.16-.26.24l.22.21c.09-.1.17-.2.22-.29.05-.1.08-.18.08-.26,0-.09-.02-.17-.06-.24-.04-.07-.09-.12-.16-.14v-.21h.37c.02.07.05.13.11.19.09.08.19.13.31.15v.16h-.09s-.05,0-.07.02c-.02.02-.03.04-.03.06,0,.06.05.13.14.22.09.09.17.13.23.13.03,0,.05-.01.06-.04.02-.02.02-.05.02-.08v-.09h.41v.35l.26.15v-1.23h1.07v.21h-.38c-.09,0-.17.03-.24.09-.06.06-.1.13-.1.21,0,.12.03.24.1.36.06.13.15.25.27.38l.09-.06c-.08-.07-.14-.15-.18-.24-.04-.09-.06-.18-.06-.26,0-.07.02-.12.07-.16.04-.05.1-.07.16-.07h.26v.62l.26.18v-1.23h.26l-.13-.24h-.31ZM19.93,30.22s-.09-.04-.12-.09c-.03-.04-.04-.1-.04-.16,0-.05.01-.08.03-.11s.04-.05.07-.05c.02,0,.03.01.04.04.01.02.02.05.02.08v.29Z"/>
              <path class="cls-1" d="M21.96,29.48c-.06-.09-.1-.15-.13-.18-.06-.08-.13-.15-.21-.2-.08-.05-.16-.07-.23-.07-.04,0-.08.01-.11.02l.12.25s.08-.02.12-.02.08,0,.12.03c.04.02.07.04.09.07l.28.37c.08,0,.06-.09-.06-.26Z"/>
              <path class="cls-1" d="M27.81,31.04l.26.18v-1.23h.26l-.13-.24h-4.97l.13.24h1.01v.21h-.81l-.04.09c.12.04.22.09.3.16.07.08.11.16.11.25,0,.04-.02.07-.05.1-.04.03-.09.05-.14.06-.01-.03-.04-.05-.06-.07-.03-.02-.06-.03-.08-.03-.04,0-.07.01-.09.04-.03.03-.04.06-.04.11,0,.06.03.11.09.15.06.05.13.07.22.07l.18.4.13-.07-.24-.34c.08-.01.15-.05.21-.1.05-.05.08-.11.08-.18,0-.07-.02-.14-.06-.21-.04-.07-.1-.13-.17-.18h.47v.65l.26.15v-1.23h.45v1.06l.26.18v-1.23h1.01v.38h-.59s-.06.01-.08.04c-.02.02-.04.05-.04.08,0,.07.03.15.09.23.06.08.12.12.17.12.02,0,.03,0,.04-.02.01,0,.02-.02.02-.04v-.1s0-.04.02-.05c0-.02.02-.02.04-.02h.32v.47l.26.15v-1.23h.47v.5h-.09s-.04,0-.05.02c-.02.01-.02.03-.02.05,0,.05.05.12.15.22.1.1.17.15.22.15.02,0,.03,0,.04-.02.01-.02.02-.04.02-.06v-.12h.44v.32ZM27.37,30.48v-.5h.44v.5h-.44Z"/>
              <path class="cls-1" d="M28.08,31.38c-.08-.07-.15-.1-.2-.1-.04,0-.08,0-.11.02-.03,0-.06.03-.09.06l.1.16s.05-.03.07-.04c.03-.01.05-.02.08-.02.07,0,.2.11.4.32l.16.16.09-.07c-.12-.13-.28-.29-.49-.49Z"/>
            </g>
            <path class="cls-1" d="M17.66,15.19s0,0,0,0c-.06.12-.04.22-.01.29.04.09.13.16.27.22,0,0,0,0,0,0,0,.16.15.28.4.35.01.12.14.28.4.28.03,0,.07,0,.12-.01.14-.04.24-.15.25-.27.25-.06.4-.19.4-.35,0-.02,0-.03,0-.05.18-.1.27-.23.27-.36,0-.04-.01-.07-.03-.1.26-.26.41-.52.48-.76h0s.01-.03.01-.05c.02-.09.03-.2.04-.22.02-.2,0-.41-.08-.6l-.07-.16c-.06-.11-.13-.22-.22-.3-.02-.02-.04-.04-.07-.06h0s-.09-.09-.09-.09c-.02-.02-.05-.04-.07-.06-.31-.28-.54-.49-.46-.97.08-.45-.06-.92-.25-1.04-.01,0-.03-.01-.04-.02,0-.07-.01-.11-.02-.11-.05-.09-.13-.12-.18-.13-.01,0-.03,0-.04,0-.09,0-.25.04-.32.3-.04.17-.04.4-.04.62,0,.04,0,.09,0,.12-.02.38-.37.84-.63,1.16,0,0-.2.22-.37.53-.13.23-.64,1.18.35,1.84ZM18.73,16.13c-.1,0-.19-.06-.19-.12,0-.01,0-.02,0-.03.03,0,.06,0,.09,0,.03,0,.06,0,.1,0,.06,0,.12,0,.18-.01,0,.01,0,.02,0,.03,0,.06-.09.12-.19.12ZM18.93,15.87s-.08,0-.12.01c-.03,0-.06,0-.08,0-.07,0-.14,0-.2-.01-.25-.03-.39-.12-.39-.19,0,0,0-.01,0-.02.19.04.39.05.53.05.27,0,.51-.03.65-.08.01.02.02.03.02.04,0,.07-.15.16-.39.19ZM17.77,13.04h.01c.33-.41.72-.92.74-1.37,0-.04,0-.09,0-.13,0-.21,0-.42.03-.57.03-.13.08-.14.12-.14,0,0,.01,0,.02,0,.03,0,.04.04.04.1,0,.04,0,.15,0,.27-.01.27-.03.64,0,.8.04.18.13.36.21.54.11.23.2.44.21.65.01.36-.16.39-.29.41-.06,0-.13.02-.13.09,0,.03.02.06.06.06.01,0,.03,0,.06-.01.04-.01.1-.03.17-.03.04,0,.08,0,.12.02.11.03.2.11.23.21.03.09.03.25-.13.47-.03.04-.11.1-.28.14-.05,0-.06.04-.05.06,0,.02.02.05.06.05.02,0,.03,0,.05,0,.26,0,.45.05.54.15.04.04.06.1.06.16,0,.11-.16.16-.26.18-.07.02-.12.03-.12.08v.02s.03.03.03.03h.02s.03,0,.06-.01c.07-.02.13-.03.17-.03.02,0,.03,0,.05,0,.03.01.04.03.04.04,0,.06-.09.16-.29.24h0s0,0,0,0c-.1.04-.32.07-.56.07-.37,0-.81-.07-.88-.22-.02-.04-.01-.08.02-.14,0,.01.02.02.04.03.25.13.58.15.75.15.12,0,.21,0,.24-.02.05-.01.12-.03.11-.08,0-.04-.03-.05-.08-.05,0,0-.02,0-.03,0-.04,0-.09,0-.16,0-.24,0-.47-.05-.73-.14-.13-.04-.39-.19-.44-.24-.19-.15-.3-.41-.3-.73-.02-.51.34-.94.5-1.12Z"/>
            <path class="cls-1" d="M22.75,19.36l-.18-.05c.08-.32.13-.66.13-.99,0-1.72-1.09-3.23-2.72-3.77l.06-.18c1.71.56,2.85,2.15,2.85,3.95,0,.35-.04.7-.13,1.04Z"/>
            <path class="cls-1" d="M14.69,19.36c-.09-.34-.13-.69-.13-1.04,0-1.7,1.02-3.22,2.6-3.86l.07.17c-1.51.61-2.48,2.06-2.48,3.68,0,.34.04.67.13,1l-.18.05Z"/>
            <g>
              <path class="cls-1" d="M17.7,27.76s-.04,0-.06.03c-.02.02-.03.04-.03.07,0,.04.01.07.04.11.03.03.07.05.12.06.01-.01.02-.03.02-.04,0-.02.01-.04.01-.07,0-.04,0-.07-.03-.1-.02-.03-.04-.04-.08-.05Z"/>
              <path class="cls-1" d="M18.39,28.04c-.06,0-.11.01-.15.04-.04.03-.06.07-.06.11,0,.03.01.05.03.07s.05.03.09.03c.05,0,.09,0,.15-.03.05-.02.1-.05.16-.09-.03-.04-.07-.07-.1-.09-.04-.02-.08-.03-.11-.03Z"/>
              <rect class="cls-1" x="14.1" y="27.04" width=".29" height=".28" transform="translate(-16.05 32.07) rotate(-71.49)"/>
              <path class="cls-1" d="M16.85,27.92c-.06,0-.11,0-.15.02-.05.03-.07.06-.08.1,0,.03,0,.05.03.08.02.02.05.04.08.04.05,0,.1,0,.15-.01.05-.02.11-.04.17-.08-.03-.04-.06-.07-.09-.1-.04-.03-.07-.04-.11-.05Z"/>
              <rect class="cls-1" x="24.45" y="26.48" width=".28" height=".29" transform="translate(-8.75 12.41) rotate(-24.18)"/>
              <path class="cls-1" d="M23.71,27.34s-.02.06-.01.08c.02.04.05.07.09.09.05.02.1.01.14,0,.07-.03.13-.07.16-.13.04-.06.04-.11.02-.17-.01-.03-.04-.05-.08-.06-.04,0-.09,0-.14.01-.02.02-.05.05-.11.09-.03.03-.06.05-.07.08Z"/>
              <path class="cls-1" d="M22.39,27.27l.12.42s.01.03.03.04c.01,0,.03,0,.04,0,.05-.01.09-.04.12-.08.03-.04.06-.09.06-.15l-.09-.31-.29.08Z"/>
              <path class="cls-1" d="M20.29,27.96c-.06,0-.1.03-.14.06-.04.04-.05.07-.05.11,0,.03.02.05.04.07.03.02.06.02.09.02.05,0,.09-.02.14-.05.04-.03.09-.07.14-.12-.04-.03-.08-.06-.12-.08-.04-.02-.08-.02-.11-.02Z"/>
              <path class="cls-1" d="M21.28,27.53l.04.22-.3.06s-.04.01-.05.03c-.01.01-.02.03-.01.05,0,.02.01.03.03.05.02.01.04.02.06.03.02-.02.04-.03.07-.04.02-.01.06-.02.1-.03l.1.11-.09.02s-.06.02-.08.04c-.02.02-.03.04-.02.07,0,.02.02.04.04.05.02.01.05.01.08,0,.07-.01.13-.05.19-.1.06-.05.1-.12.13-.2l-.07-.39-.2.04Z"/>
              <path class="cls-1" d="M27.7,25.93c-.07-.13-.14-.27-.2-.41.13-.09.26-.2.38-.31.41-.37.17-.86-.03-1.25l-.04-.08c-.1-.2-.08-.41-.06-.58.02-.17.03-.32-.07-.43-.09-.1-.26-.13-.54-.12h0s0,0,0,0c-.6.04-.98.54-1.05,1.4-.05.02-.1.05-.15.07-.37.17-.82.31-1.24.42h0c-.09.02-.16.04-.22.06,0,0,0,0,0,0h0c-.07.02-.11.04-.15.06-.24.15-.07.78,0,1.01-1.08.77-3.1,1.25-5.35,1.25-.08,0-.16,0-.24,0h0s0,0,0,0c0,0,0,0,0,0h0c-.08,0-.16,0-.24,0-2.25,0-4.28-.48-5.35-1.25.07-.23.24-.86,0-1.01-.03-.02-.08-.04-.15-.06h0s0,0,0,0c-.06-.02-.13-.04-.22-.06h0c-.42-.11-.86-.24-1.24-.42-.05-.02-.1-.05-.15-.07-.08-.86-.45-1.36-1.05-1.4,0,0,0,0,0,0h0c-.28-.01-.45.02-.54.12-.1.11-.09.26-.07.43.02.18.03.38-.06.58l-.04.08c-.19.39-.44.88-.03,1.25.12.11.25.22.38.31-.06.14-.13.28-.2.41-.12.23-.24.46-.3.73-.02.1-.08.91.09.97.03.01.09.01.13-.08.17-.34.46-.71.64-.72.03,0,.08,0,.13.08.04.07.08.17.12.25.05.13.08.19.14.18.07-.01.07-.09.07-.15,0-.39.11-.77.23-1.11.28.1.55.18.82.26,0,0,.01,0,.02,0l-.02.02c-.08.09-.2.2-.2.2-.08.09-.12.2-.11.31.01.1.07.2.16.27,1.55,1.1,4.09,1.76,6.81,1.76.08,0,.16,0,.25,0,.08,0,.17,0,.25,0,2.71,0,5.26-.66,6.81-1.76.09-.07.15-.16.16-.27.01-.11-.03-.22-.11-.31,0,0-.12-.12-.2-.2l-.02-.02s.01,0,.02,0c.27-.08.55-.16.82-.26.12.35.23.72.23,1.11,0,.06,0,.14.07.15.07.01.09-.05.14-.18.03-.08.07-.18.12-.25.05-.08.1-.09.13-.08.18.01.47.37.64.72.05.1.1.09.13.08.17-.06.11-.87.09-.97-.06-.26-.18-.5-.3-.73ZM10.63,27.01c-.03-.06-.05-.12-.09-.17-.08-.13-.18-.15-.25-.14-.27.02-.57.45-.73.74-.03-.18-.03-.6,0-.74.06-.25.18-.48.29-.7.07-.13.13-.26.19-.39.25.17.52.31.82.43-.11.31-.21.64-.23.98ZM10.15,22.96s.02-.08.15-.08c.64.04.85.64.92,1.19-.71-.4-1.11-.91-1.07-1.11ZM13.04,25.48s-.03.1-.04.15c-.01,0-.02-.02-.03-.03-.14-.11-.22-.19-.19-.28.03-.07.06-.09.14-.09.03,0,.06,0,.1,0,.03,0,.06,0,.08,0M13.8,27.41c-.03-.08-.04-.14-.03-.19,0,0,.01-.02.03-.02.02,0,.03,0,.05,0l.08.03.09-.28-.15-.05h0s-.15-.05-.15-.05l-.32.76-.1-.15.11-.26s-.03.01-.05.02c-.02,0-.03,0-.04,0-.01,0-.02-.01-.04-.03-.02-.02-.03-.03-.04-.05,0,.03,0,.06-.02.08-.02.05-.06.09-.11.11-.05.02-.1.02-.15,0-.07-.03-.13-.1-.17-.21-.04-.11-.06-.23-.05-.38h.05c0,.09.01.18.05.26.03.08.08.13.15.15.03.01.07.02.11,0,.04-.01.06-.03.07-.07,0-.02.01-.04.01-.06,0-.02,0-.04-.02-.06-.05,0-.11,0-.18-.01v-.16s.1.03.16.02c.06,0,.09-.03.11-.08,0-.02,0-.04,0-.06,0-.02-.02-.03-.04-.04-.04-.02-.09-.03-.14-.03-.05,0-.09,0-.13.03l-.04-.16s.08-.02.13-.02c.04,0,.09.01.14.03.05.02.09.07.12.16.03.09.04.16.02.2,0,.02-.02.04-.05.06-.02.02-.05.03-.07.03.01.02.03.05.03.09.02.01.04.03.06.04.03.01.06.02.09.01.03,0,.06-.02.08-.04l.12-.28-.12-.05-.04-.14.41.17.85.28h0s.84.23.84.23l.05.13-.15-.04-.21.8-.12-.13.11-.42-.28-.07s-.05,0-.07.02c-.02.02-.04.05-.05.08-.02.06-.02.12,0,.19.01.06.04.13.09.19l-.07.03c-.06-.11-.1-.21-.13-.29-.03-.09-.03-.15-.02-.2.01-.05.04-.09.08-.12.04-.03.08-.04.13-.03l.35.09.04-.16-.55-.15h0s-.02,0-.02,0h-.01s0,0,0,0l-.12-.04-.23.7h.02s.05.13.05.13l-.13-.04s-.07,0-.1.02c-.03.02-.05.05-.06.09,0,.02,0,.05,0,.07.01.02.03.04.05.05.04.01.07.01.12,0,.04,0,.08-.02.12-.04l.05.13s-.08.02-.12.02c-.05,0-.09,0-.14-.02-.05-.02-.09-.06-.12-.13-.03-.07-.04-.14-.02-.2.01-.04.04-.08.08-.1.03-.01.05-.02.08-.02l-.02-.02.1-.29-.27-.09-.03.09s-.02.04-.03.05c-.02.01-.03.01-.05,0M18.76,27.77l-.02.83-.15-.1v-.19s-.07.05-.11.07c-.04.02-.08.02-.11.02-.07,0-.14-.04-.21-.1-.07-.07-.1-.13-.1-.2,0-.05.02-.1.07-.14.05-.04.1-.06.17-.06.06,0,.11.02.17.05.05.03.1.08.14.13v-.33s-.61-.01-.61-.01h0s-.2-.02-.2-.02c.05.04.08.08.1.12.02.05.03.1.03.15,0,.06-.03.12-.07.18-.04.05-.1.1-.17.13l.18.24-.08.06-.16-.28s-.02,0-.03,0c0,0-.02,0-.04,0-.03,0-.07-.02-.1-.06-.03-.04-.05-.07-.05-.11,0-.02.01-.04.03-.06.01-.02.03-.02.05-.02.02,0,.04,0,.06.03.02.02.04.04.05.06.02,0,.05-.02.08-.05.03-.02.05-.05.06-.08-.1-.02-.17-.05-.22-.1-.06-.05-.08-.11-.08-.16,0-.02,0-.03.01-.05,0-.01.02-.03.03-.04h-.1s0,0,0,0l-.16-.02-.11.82-.14-.11.02-.19s-.08.04-.12.05c-.04.01-.08.02-.12.01-.07,0-.14-.05-.2-.12s-.09-.14-.08-.21c0-.05.04-.1.09-.13.05-.03.11-.04.17-.04.06,0,.11.03.16.07.05.04.09.09.13.15l.04-.33-.61-.08h0s-.11-.03-.11-.03l-.14.82-.13-.12.13-.72-.15-.03-.06-.13.28.05s-.03-.08-.03-.11c0-.03,0-.05,0-.07.01-.08.05-.14.12-.18s.14-.06.22-.04c.06.01.13.06.21.15.08.09.15.2.22.34l-.04.02c-.04-.1-.1-.19-.16-.25-.06-.06-.13-.1-.19-.11-.06-.01-.12,0-.18.04-.05.03-.08.08-.09.14,0,.04-.01.07,0,.09l.12.02h0s.86.12.86.12h0s.62.05.62.05h0s.87.02.87.02l.08.11h-.16ZM24.43,25.24s.07,0,.1,0c.07,0,.11.02.14.09.03.1-.05.17-.19.28-.01,0-.02.02-.03.03-.01-.05-.03-.1-.04-.15-.03-.08-.05-.17-.06-.24.03,0,.06,0,.08,0ZM24.61,27.03s.01.04,0,.05c0,.02-.01.03-.03.04-.04.02-.1.01-.18-.02-.08-.03-.13-.07-.15-.12,0,0,0-.02,0-.03.01-.01.02-.02.04-.03l.08-.03-.12-.27-.14.06h0s-.03.01-.03.01h-.01s0,0,0,0l-.26.1s.07.05.09.07c.03.02.04.05.05.07,0,.02,0,.05,0,.07,0,.03-.02.05-.04.08.08-.02.15,0,.21.02.06.03.11.06.13.12.03.07.02.14-.02.21-.05.07-.11.13-.2.16-.08.03-.17.02-.27-.04-.11-.05-.17-.12-.2-.2-.01-.04,0-.08.02-.13.03-.05.07-.09.12-.12.04-.03.07-.06.1-.1.02-.04.03-.07.02-.1,0-.02-.02-.05-.04-.06-.01-.02-.03-.03-.04-.04l-.4.15h0s-.11.04-.11.04l.27.79-.17-.04-.23-.7-.1.04h0s-.15.05-.15.05l.23.8-.17-.05-.06-.2s-.02.04-.04.06c-.02.02-.04.03-.07.04-.07.02-.14.01-.23-.02-.08-.03-.13-.07-.15-.13l-.09-.33-.09.03h0s-.11.02-.11.02l.2.81-.17-.06-.17-.71-.11.03h0s-.16.04-.16.04l.15.81-.17-.06-.02-.13s-.06.08-.1.1c-.05.03-.1.05-.16.06-.06.01-.13,0-.21-.04-.07-.04-.12-.08-.13-.13,0,0,0-.02,0-.04,0-.01.01-.03.03-.04-.05-.01-.09-.04-.12-.06-.03-.03-.05-.06-.06-.09,0-.04,0-.07.03-.1.02-.03.06-.05.1-.06l.19-.04-.02-.09-.4.07h0s-.12.01-.12.01l.1.82-.16-.08-.02-.19s-.07.06-.1.08c-.04.02-.07.04-.11.04-.07,0-.14-.02-.22-.07-.08-.06-.12-.12-.13-.18,0-.05.01-.1.05-.15.04-.04.1-.07.16-.08.06,0,.11,0,.17.03.06.02.11.06.16.11l-.04-.33-.61.07h0s-.11,0-.11,0l.06.83-.16-.08-.05-.73h-.15s-.09-.1-.09-.1l.28-.02s-.04-.07-.06-.1c-.01-.03-.02-.05-.02-.07,0-.08.02-.15.07-.21.06-.06.12-.09.21-.1.07,0,.14.03.23.09.1.07.19.16.29.28l-.04.03c-.07-.09-.14-.16-.22-.21-.08-.05-.15-.07-.21-.06-.06,0-.12.03-.16.08-.04.05-.06.1-.06.16,0,.04,0,.07.02.09h.12s0,0,0,0l.86-.1h0s.95-.17.95-.17h0s.45-.11.45-.11h0s.73-.21.73-.21l.28-.09c-.05-.08-.11-.14-.17-.17-.06-.04-.12-.05-.18-.03-.04.01-.07.04-.09.08-.02.04-.02.08,0,.13,0,.02.02.04.03.06.02.02.03.03.05.04l-.05.02s-.06-.04-.09-.08c-.02-.03-.04-.07-.06-.1-.02-.06-.02-.11.01-.17.02-.06.07-.09.12-.11.07-.02.16,0,.24.05.09.06.17.15.23.26l.11-.04h0s.74-.28.74-.28h0s.81-.36.81-.36l.12.07-.15.07.34.76-.18-.02-.13-.28-.26.12.04.09ZM25.44,27.31l-.26-.08s-.03,0-.06-.01c-.02,0-.03,0-.04,0,0,0-.02.01-.03.02,0,0-.02.03-.04.05l-.09-.06s.03-.04.05-.06c.01-.01.03-.02.04-.03.01,0,.02,0,.03,0,.01,0,.02,0,.04,0l.38.1-.03.06ZM26.23,24.07c.06-.55.28-1.14.92-1.19.14,0,.15.06.15.08.04.2-.36.71-1.07,1.11ZM27.88,27.43c-.15-.29-.45-.72-.73-.74-.07,0-.17.02-.25.14-.03.05-.06.11-.09.17-.03-.35-.13-.67-.23-.98.3-.12.57-.26.82-.43.06.13.12.26.19.39.11.22.23.45.29.7.03.14.03.56,0,.74Z"/>
            </g>
          </g>
        </g>
        <g>
          <path class="cls-1" d="M9.39,35.04v-1.67c0-.12-.03-.19-.06-.22-.02-.02-.04-.03-.06-.04h.91c.67,0,1.22.46,1.22,1.13,0,.22-.06.44-.17.6-.15.22-.44.49-1.13.49-.26,0-.65-.05-.69-.05s-.07,0-.1,0c-.01,0-.03,0-.04,0,.1-.05.12-.14.12-.26ZM9.62,34.99c0,.12.09.28.52.28.75,0,1.02-.51,1.02-1.01,0-.59-.42-1.09-1.1-1.09-.22,0-.37.01-.45.02v1.8Z"/>
          <path class="cls-1" d="M12.14,35.25s.06-.1.06-.21v-1.67c0-.12-.03-.18-.06-.22-.02-.02-.04-.04-.06-.04h1.07l-.02.23s0-.03-.01-.04c-.01-.03-.03-.05-.05-.07-.06-.04-.37-.04-.44-.04h-.2v.9h.47c.1,0,.14-.03.18-.05.02-.01.04-.03.05-.05,0,.03-.02.28-.02.32,0-.01,0-.03-.01-.04-.01-.02-.03-.05-.06-.06-.06-.03-.23-.02-.37-.02h-.23v.83c0,.1.02.23.33.23.22,0,.29-.04.35-.09.03-.03.06-.05.09-.09.01-.01.03-.03.04-.05,0,.03-.02.21-.07.24-.06.04-.11.05-.41.05-.15,0-.32-.01-.43-.03-.06-.01-.12,0-.17,0-.03,0-.06,0-.08,0,.02-.01.04-.03.06-.05Z"/>
          <path class="cls-1" d="M13.95,35.25s.06-.1.06-.21v-1.67c0-.12-.03-.18-.06-.22-.02-.02-.04-.04-.06-.04h1.07l-.02.23s0-.03-.01-.04c-.01-.03-.03-.05-.05-.07-.06-.04-.37-.04-.44-.04h-.2v.9h.47c.1,0,.14-.03.18-.05.02-.01.04-.03.05-.05,0,.03-.02.28-.02.32,0-.01,0-.03-.01-.04-.01-.02-.03-.05-.06-.06-.06-.03-.23-.02-.37-.02h-.23v.83c0,.1.02.23.33.23.22,0,.29-.04.35-.09.03-.03.06-.05.09-.09.01-.01.03-.03.04-.05,0,.03-.02.21-.07.24-.06.04-.11.05-.41.05-.15,0-.32-.01-.43-.03-.06-.01-.12,0-.17,0-.03,0-.06,0-.08,0,.02-.01.04-.03.06-.05Z"/>
          <path class="cls-1" d="M15.89,34.96c-.01.15,0,.23.02.28.01.03.03.04.05.05h-.4s.05-.03.07-.05c.04-.04.08-.12.1-.27l.21-1.91.91,1.85.9-1.85.2,1.9c.01.15.05.23.09.27.02.03.05.05.07.06h-.46s.04-.03.05-.05c.02-.05.04-.13.02-.28l-.12-1.26-.78,1.63-.8-1.63-.11,1.26Z"/>
          <path class="cls-1" d="M18.7,35.25s.06-.1.06-.21v-1.67c0-.12-.03-.18-.06-.22-.02-.02-.04-.04-.06-.04h1.07l-.02.23s0-.03-.01-.04c-.01-.03-.03-.05-.05-.07-.06-.04-.37-.04-.44-.04h-.2v.9h.47c.1,0,.14-.03.18-.05.02-.01.04-.03.05-.05,0,.03-.02.28-.02.32,0-.01,0-.03-.01-.04-.01-.02-.03-.05-.06-.06-.06-.03-.23-.02-.37-.02h-.23v.83c0,.1.02.23.33.23.22,0,.29-.04.35-.09.03-.03.06-.05.09-.09.01-.01.03-.03.04-.05,0,.03-.02.21-.07.24-.06.04-.11.05-.41.05-.15,0-.32-.01-.43-.03-.06-.01-.12,0-.17,0-.03,0-.06,0-.08,0,.02-.01.04-.03.06-.05Z"/>
          <path class="cls-1" d="M20.57,35.04v-1.67c0-.12-.03-.19-.06-.22-.02-.02-.04-.03-.06-.04h.91c.67,0,1.22.46,1.22,1.13,0,.22-.06.44-.17.6-.15.22-.44.49-1.13.49-.26,0-.65-.05-.69-.05s-.07,0-.1,0c-.01,0-.03,0-.04,0,.1-.05.12-.14.12-.26ZM20.8,34.99c0,.12.09.28.52.28.75,0,1.02-.51,1.02-1.01,0-.59-.42-1.09-1.1-1.09-.22,0-.37.01-.45.02v1.8Z"/>
          <path class="cls-1" d="M24.92,33.2v1.84c0,.13.03.2.06.23.02.02.04.03.06.03h-.45s.11-.01.11-.26v-1.85h-.49c-.25,0-.3.12-.3.12v-.04s.01-.06.02-.1l.02-.14s0,.01.02.02c.02.01.05.02.09.03.04.01.11.02.16.02h1.21s.11,0,.17-.02c.04,0,.06-.02.09-.05l-.04.27s-.01-.04-.03-.06c-.03-.03-.09-.06-.2-.06h-.51Z"/>
          <path class="cls-1" d="M27.18,33.05c.59,0,1.11.49,1.11,1.16,0,.62-.47,1.14-1.1,1.14-.6,0-1.12-.49-1.12-1.17,0-.6.49-1.13,1.11-1.13ZM27.18,33.14c-.51,0-.86.46-.86,1.02,0,.71.43,1.11.89,1.11.48,0,.85-.39.85-.98,0-.52-.27-1.15-.87-1.15Z"/>
          <path class="cls-1" d="M29.82,35.3c.11-.07.12-.15.12-.26v-1.67c0-.12-.03-.18-.06-.22-.02-.02-.04-.04-.06-.04h.55c.36,0,.56.19.56.51,0,.29-.25.47-.36.51.05,0,.09.02.13.04.07.03.17.07.26.14.11.09.21.23.21.44s-.09.33-.2.43c-.14.13-.34.16-.49.16-.15,0-.3-.01-.42-.03-.07-.01-.13-.01-.18-.01h-.07ZM30.17,34.11h.22c.16,0,.34-.16.34-.48,0-.28-.18-.41-.38-.43-.06-.01-.12-.01-.18,0v.92ZM30.17,35.02c0,.07.02.24.33.24s.45-.22.45-.49c0-.39-.27-.59-.58-.59h-.2v.84Z"/>
          <path class="cls-1" d="M31.89,35.25s.06-.1.06-.21v-1.67c0-.12-.03-.18-.06-.22-.02-.02-.04-.04-.06-.04h1.07l-.02.23s0-.03-.01-.04c-.01-.03-.03-.05-.05-.07-.06-.04-.37-.04-.44-.04h-.2v.9h.47c.1,0,.14-.03.18-.05.02-.01.04-.03.05-.05,0,.03-.02.28-.02.32,0-.01,0-.03-.01-.04-.01-.02-.03-.05-.06-.06-.06-.03-.23-.02-.37-.02h-.23v.83c0,.1.02.23.33.23.22,0,.29-.04.35-.09.03-.03.06-.05.09-.09.01-.01.03-.03.04-.05,0,.03-.02.21-.07.24-.06.04-.11.05-.41.05-.15,0-.32-.01-.43-.03-.06-.01-.12,0-.17,0-.03,0-.06,0-.08,0,.02-.01.04-.03.06-.05Z"/>
          <path class="cls-1" d="M36.34,35.3v-.24c-.14.11-.39.27-.71.27s-.52-.06-.7-.22c-.2-.16-.33-.41-.33-.78v-.99c0-.1-.03-.16-.05-.19-.02-.02-.04-.03-.05-.04h.45s-.04.02-.06.04c-.03.03-.05.09-.05.19v1c0,.24.04.49.22.69.13.13.3.21.59.21s.58-.2.7-.32v-1.59c0-.1-.03-.16-.06-.2-.02-.02-.04-.03-.05-.04h.45s-.04.02-.06.04c-.03.03-.05.09-.05.2v1.7c0,.11.03.17.05.21.02.02.04.04.06.05h-.34Z"/>
          <path class="cls-1" d="M37.64,33.54v1.44c0,.14.03.22.07.27.02.03.04.04.07.05h-.41s.04-.03.06-.05c.03-.04.06-.12.06-.27v-1.91l1.75,1.8v-1.47c0-.14-.04-.21-.08-.25-.02-.03-.05-.04-.07-.05h.44s-.05.02-.07.05c-.04.04-.07.11-.07.25v1.93l-1.74-1.8Z"/>
          <path class="cls-1" d="M40.66,33.11s-.04.02-.06.04c-.03.04-.05.1-.05.21v1.67c0,.11.02.17.05.21.02.02.04.04.06.05h-.45s.04-.02.05-.04c.02-.04.05-.1.05-.22v-1.67c0-.12-.03-.18-.05-.22-.02-.02-.04-.04-.05-.04h.45Z"/>
          <path class="cls-1" d="M43.34,33.11s-.06.02-.1.05c-.06.04-.12.12-.19.27l-.82,1.92-.82-1.97c-.06-.14-.14-.25-.24-.26h.5s-.04.02-.05.04c-.02.03-.02.1.04.23l.63,1.53.63-1.53c.05-.12.05-.18.03-.22-.01-.02-.02-.04-.04-.04h.42Z"/>
          <path class="cls-1" d="M43.89,35.25s.06-.1.06-.21v-1.67c0-.12-.03-.18-.06-.22-.02-.02-.04-.04-.06-.04h1.07l-.02.23s0-.03-.01-.04c-.01-.03-.03-.05-.05-.07-.06-.04-.37-.04-.44-.04h-.2v.9h.47c.1,0,.14-.03.18-.05.02-.01.04-.03.05-.05,0,.03-.02.28-.02.32,0-.01,0-.03-.01-.04-.01-.02-.03-.05-.06-.06-.06-.03-.23-.02-.37-.02h-.23v.83c0,.1.02.23.33.23.22,0,.29-.04.35-.09.03-.03.06-.05.09-.09.01-.01.03-.03.04-.05,0,.03-.02.21-.07.24-.06.04-.11.05-.41.05-.15,0-.32-.01-.43-.03-.06-.01-.12,0-.17,0-.03,0-.06,0-.08,0,.02-.01.04-.03.06-.05Z"/>
          <path class="cls-1" d="M47.05,35.04c.12.18.26.36.49.36h-.05s-.07.03-.12.03c-.15,0-.35-.06-.52-.32l-.45-.73c-.14.03-.32.02-.42.02v.63c0,.12.02.18.05.22.02.02.04.04.06.04h-.46s.04-.01.06-.04c.03-.03.06-.1.06-.22v-1.7c0-.1-.03-.16-.06-.2-.02-.02-.04-.03-.06-.04h.63c.34,0,.69.22.69.6,0,.21-.13.48-.36.61l.45.72ZM46.75,33.82c0-.57-.49-.64-.64-.64-.05,0-.07,0-.1,0h-.03v1.13s.09.01.17.01c.47,0,.59-.28.59-.51Z"/>
          <path class="cls-1" d="M48.21,35.33c-.21,0-.37-.02-.46-.1-.05-.03-.06-.13-.06-.2,0-.03,0-.06,0-.08,0-.01,0-.02,0-.04.04.18.2.32.5.32s.48-.2.48-.4c0-.54-.9-.55-.9-1.18,0-.52.47-.58.59-.58s.25.03.38.03c.05,0,.07,0,.07,0-.01.07-.01.15-.02.22v.11c-.06-.21-.21-.27-.43-.27-.3,0-.42.24-.42.39,0,.18.11.33.41.52.31.2.49.37.49.65,0,.34-.31.6-.65.6Z"/>
          <path class="cls-1" d="M49.96,33.11s-.04.02-.06.04c-.03.04-.05.1-.05.21v1.67c0,.11.02.17.05.21.02.02.04.04.06.05h-.45s.04-.02.05-.04c.02-.04.05-.1.05-.22v-1.67c0-.12-.03-.18-.05-.22-.02-.02-.04-.04-.05-.04h.45Z"/>
          <path class="cls-1" d="M51.46,33.2v1.84c0,.13.03.2.06.23.02.02.04.03.06.03h-.45s.11-.01.11-.26v-1.85h-.49c-.25,0-.3.12-.3.12v-.04s.01-.06.02-.1l.02-.14s0,.01.02.02c.02.01.05.02.09.03.04.01.11.02.16.02h1.21s.11,0,.17-.02c.04,0,.06-.02.09-.05l-.04.27s-.01-.04-.03-.06c-.03-.03-.09-.06-.2-.06h-.51Z"/>
          <path class="cls-1" d="M54.18,33.16s-.02-.04-.04-.05h.41s-.05.02-.08.05c-.05.04-.12.1-.21.22-.1.14-.25.35-.38.52l-.22.31v.84c0,.11.03.17.05.21.01.02.03.04.05.04h-.44s.04-.02.05-.04c.03-.04.06-.1.06-.21v-.78l-.3-.4c-.15-.21-.32-.43-.37-.49-.19-.22-.24-.25-.27-.26h.55s-.05.03-.06.05c-.02.04-.03.1.05.21.07.1.2.28.33.45l.22.31c.08-.12.16-.22.23-.33.12-.17.26-.36.31-.43.07-.1.07-.17.06-.21Z"/>
          <path class="cls-1" d="M57.68,35.3v-.24c-.14.11-.39.27-.71.27s-.52-.06-.7-.22c-.2-.16-.33-.41-.33-.78v-.99c0-.1-.03-.16-.05-.19-.02-.02-.04-.03-.05-.04h.45s-.04.02-.06.04c-.03.03-.05.09-.05.19v1c0,.24.04.49.22.69.13.13.3.21.59.21s.58-.2.7-.32v-1.59c0-.1-.03-.16-.06-.2-.02-.02-.04-.03-.05-.04h.45s-.04.02-.06.04c-.03.03-.05.09-.05.2v1.7c0,.11.03.17.05.21.02.02.04.04.06.05h-.34Z"/>
          <path class="cls-1" d="M58.98,33.54v1.44c0,.14.03.22.07.27.02.03.04.04.07.05h-.41s.04-.03.06-.05c.03-.04.06-.12.06-.27v-1.91l1.75,1.8v-1.47c0-.14-.04-.21-.08-.25-.02-.03-.05-.04-.07-.05h.44s-.05.02-.07.05c-.04.04-.07.11-.07.25v1.93l-1.74-1.8Z"/>
          <path class="cls-1" d="M61.66,35.04v-1.67c0-.12-.03-.19-.06-.22-.02-.02-.04-.03-.06-.04h.91c.67,0,1.22.46,1.22,1.13,0,.22-.06.44-.17.6-.15.22-.44.49-1.13.49-.26,0-.65-.05-.69-.05s-.07,0-.1,0c-.01,0-.03,0-.04,0,.1-.05.12-.14.12-.26ZM61.89,34.99c0,.12.09.28.52.28.75,0,1.02-.51,1.02-1.01,0-.59-.42-1.09-1.1-1.09-.22,0-.37.01-.45.02v1.8Z"/>
          <path class="cls-1" d="M64.41,35.25s.06-.1.06-.21v-1.67c0-.12-.03-.18-.06-.22-.02-.02-.04-.04-.06-.04h1.07l-.02.23s0-.03-.01-.04c-.01-.03-.03-.05-.05-.07-.06-.04-.37-.04-.44-.04h-.2v.9h.47c.1,0,.14-.03.18-.05.02-.01.04-.03.05-.05,0,.03-.02.28-.02.32,0-.01,0-.03-.01-.04-.01-.02-.03-.05-.06-.06-.06-.03-.23-.02-.37-.02h-.23v.83c0,.1.02.23.33.23.22,0,.29-.04.35-.09.03-.03.06-.05.09-.09.01-.01.03-.03.04-.05,0,.03-.03.21-.07.24-.06.04-.11.05-.41.05-.15,0-.32-.01-.43-.03-.06-.01-.12,0-.17,0-.03,0-.06,0-.08,0,.02-.01.04-.03.06-.05Z"/>
          <path class="cls-1" d="M67.58,35.04c.12.18.26.36.49.36h-.05s-.07.03-.12.03c-.15,0-.35-.06-.52-.32l-.45-.73c-.14.03-.32.02-.42.02v.63c0,.12.03.18.05.22.02.02.04.04.06.04h-.46s.04-.01.06-.04c.03-.03.06-.1.06-.22v-1.7c0-.1-.03-.16-.06-.2-.02-.02-.04-.03-.06-.04h.63c.34,0,.69.22.69.6,0,.21-.13.48-.36.61l.45.72ZM67.28,33.82c0-.57-.49-.64-.64-.64-.05,0-.07,0-.1,0h-.03v1.13s.09.01.17.01c.47,0,.59-.28.59-.51Z"/>
          <path class="cls-1" d="M69.57,35.33c-.21,0-.37-.02-.46-.1-.05-.03-.06-.13-.06-.2,0-.03,0-.06,0-.08,0-.01,0-.02,0-.04.04.18.2.32.5.32s.48-.2.48-.4c0-.54-.9-.55-.9-1.18,0-.52.47-.58.59-.58s.25.03.38.03c.05,0,.07,0,.07,0-.01.07-.01.15-.02.22v.11c-.06-.21-.21-.27-.43-.27-.3,0-.42.24-.42.39,0,.18.11.33.41.52.31.2.49.37.49.65,0,.34-.31.6-.65.6Z"/>
          <path class="cls-1" d="M70.93,35.25s.06-.1.06-.21v-1.67c0-.12-.03-.18-.06-.22-.02-.02-.04-.04-.06-.04h1.07l-.02.23s0-.03-.01-.04c-.01-.03-.03-.05-.05-.07-.06-.04-.37-.04-.44-.04h-.2v.9h.47c.1,0,.14-.03.18-.05.02-.01.04-.03.05-.05,0,.03-.02.28-.02.32,0-.01,0-.03-.01-.04-.01-.02-.03-.05-.06-.06-.06-.03-.23-.02-.37-.02h-.23v.83c0,.1.02.23.33.23.22,0,.29-.04.35-.09.03-.03.06-.05.09-.09.01-.01.03-.03.04-.05,0,.03-.02.21-.07.24-.06.04-.11.05-.41.05-.15,0-.32-.01-.43-.03-.06-.01-.12,0-.17,0-.03,0-.06,0-.08,0,.02-.01.04-.03.06-.05Z"/>
          <path class="cls-1" d="M72.69,34.17c0-.23.06-.45.18-.63.15-.22.44-.47.91-.47.33,0,.53.05.82.11l-.03.3c-.03-.06-.09-.12-.15-.17-.12-.09-.31-.17-.62-.17-.55,0-.87.47-.87,1s.36,1.1,1.01,1.1c.25,0,.55-.06.71-.24-.01.12-.06.32-.76.32-.65,0-1.19-.49-1.19-1.16Z"/>
          <path class="cls-1" d="M76.1,33.2v1.84c0,.13.03.2.06.23.02.02.04.03.06.03h-.45s.11-.01.11-.26v-1.85h-.49c-.25,0-.3.12-.3.12v-.04s.01-.06.02-.1l.02-.14s0,.01.02.02c.02.01.05.02.09.03.04.01.11.02.16.02h1.21s.11,0,.17-.02c.04,0,.06-.02.09-.05l-.04.27s-.01-.04-.03-.06c-.03-.03-.09-.06-.2-.06h-.5Z"/>
          <path class="cls-1" d="M77.81,33.11s-.04.02-.06.04c-.03.04-.05.1-.05.21v1.67c0,.11.03.17.05.21.02.02.04.04.06.05h-.45s.04-.02.05-.04c.02-.04.05-.1.05-.22v-1.67c0-.12-.03-.18-.05-.22-.02-.02-.04-.04-.05-.04h.45Z"/>
          <path class="cls-1" d="M79.62,33.05c.59,0,1.11.49,1.11,1.16,0,.62-.47,1.14-1.1,1.14-.6,0-1.12-.49-1.12-1.17,0-.6.49-1.13,1.11-1.13ZM79.62,33.14c-.51,0-.86.46-.86,1.02,0,.71.43,1.11.89,1.11.48,0,.85-.39.85-.98,0-.52-.27-1.15-.87-1.15Z"/>
          <path class="cls-1" d="M81.69,33.54v1.44c0,.14.03.22.07.27.02.03.04.04.07.05h-.41s.04-.03.06-.05c.03-.04.06-.12.06-.27v-1.91l1.75,1.8v-1.47c0-.14-.04-.21-.08-.25-.03-.03-.05-.04-.07-.05h.44s-.05.02-.07.05c-.04.04-.07.11-.07.25v1.93l-1.74-1.8Z"/>
          <path class="cls-1" d="M86.5,34.58c0,.22-.1.4-.24.51-.18.17-.37.23-.58.23-.16,0-.29-.03-.37-.05-.05-.01-.09-.03-.13-.05l-.04-.18s.07.07.13.1c.09.05.22.1.41.1.35,0,.6-.32.58-.66-.03-.44-.33-.56-.47-.58-.06-.01-.12,0-.18,0h-.09s.54-.69.54-.69h-.65c-.06,0-.11.03-.14.05l-.05.05.07-.31h1.1l-.33.41c-.16.2-.33.41-.33.4.31.01.75.17.75.67Z"/>
          <path class="cls-1" d="M89.18,33.05c.59,0,1.11.49,1.11,1.16,0,.62-.47,1.14-1.1,1.14-.6,0-1.12-.49-1.12-1.17,0-.6.49-1.13,1.11-1.13ZM89.18,33.14c-.51,0-.86.46-.86,1.02,0,.71.43,1.11.89,1.11.48,0,.85-.39.85-.98,0-.52-.27-1.15-.87-1.15Z"/>
          <path class="cls-1" d="M90.98,35.3s.04-.02.06-.04c.03-.04.06-.1.06-.22v-1.67c0-.11-.03-.17-.06-.21-.02-.02-.04-.04-.06-.04h1.07l-.02.24h0s-.01-.08-.07-.11c-.06-.04-.38-.04-.43-.04h-.2v.95h.43c.1,0,.15-.03.18-.05.02-.01.03-.03.04-.05h0l-.02.32s0-.03-.01-.04c-.01-.02-.04-.05-.06-.06-.05-.03-.23-.02-.37-.02h-.18v.81c0,.23.13.26.14.26h-.49Z"/>
          <path class="cls-1" d="M95.44,35.3v-.24c-.14.11-.39.27-.71.27s-.52-.06-.7-.22c-.2-.16-.33-.41-.33-.78v-.99c0-.1-.03-.16-.05-.19-.02-.02-.04-.03-.05-.04h.45s-.04.02-.06.04c-.03.03-.05.09-.05.19v1c0,.24.04.49.22.69.13.13.3.21.59.21s.58-.2.7-.32v-1.59c0-.1-.03-.16-.06-.2-.02-.02-.04-.03-.05-.04h.45s-.04.02-.06.04c-.03.03-.05.09-.05.2v1.7c0,.11.03.17.05.21.02.02.04.04.06.05h-.34Z"/>
          <path class="cls-1" d="M96.48,34.17c0-.23.06-.44.18-.63.15-.22.44-.47.9-.47.37,0,.53.04.82.11l-.02.3c-.04-.06-.09-.12-.16-.17-.12-.09-.31-.17-.62-.17-.55,0-.87.47-.87,1s.36,1.1,1.01,1.1c.24,0,.4-.04.49-.08v-.74c0-.11-.03-.16-.05-.19-.01-.02-.03-.03-.05-.03h.42s-.04.01-.05.03c-.02.03-.05.08-.05.19v.79c-.13.06-.37.12-.77.12-.66,0-1.19-.49-1.19-1.16Z"/>
          <path class="cls-1" d="M99.23,34.17c0-.23.06-.45.18-.63.15-.22.44-.47.91-.47.33,0,.53.05.82.11l-.03.3c-.03-.06-.09-.12-.15-.17-.12-.09-.31-.17-.62-.17-.55,0-.87.47-.87,1s.36,1.1,1.01,1.1c.25,0,.55-.06.71-.24-.01.12-.06.32-.76.32-.65,0-1.19-.49-1.19-1.16Z"/>
          <path class="cls-1" d="M102.89,35.03c-.05.13-.04.23.01.27h-.39c.06-.03.14-.07.22-.29l.74-1.95.81,1.97c.09.22.17.24.23.27h-.48c.06-.04.07-.1.02-.23l-.26-.68h-.66l-.23.64ZM103.45,33.51l-.3.8h.6l-.3-.8Z"/>
          <path class="cls-1" d="M104.92,34.17c0-.23.06-.45.18-.63.15-.22.44-.47.91-.47.33,0,.53.05.82.11l-.03.3c-.03-.06-.09-.12-.15-.17-.12-.09-.31-.17-.62-.17-.55,0-.87.47-.87,1s.36,1.1,1.01,1.1c.25,0,.55-.06.71-.24-.01.12-.06.32-.76.32-.65,0-1.19-.49-1.19-1.16Z"/>
          <path class="cls-1" d="M108.33,33.2v1.84c0,.13.03.2.06.23.02.02.04.03.06.03h-.45s.11-.01.11-.26v-1.85h-.49c-.25,0-.3.12-.3.12v-.04s.01-.06.02-.1l.02-.14s0,.01.02.02c.02.01.05.02.09.03.04.01.11.02.16.02h1.21s.11,0,.17-.02c.04,0,.06-.02.09-.05l-.04.27s-.01-.04-.03-.06c-.03-.03-.09-.06-.2-.06h-.5Z"/>
          <path class="cls-1" d="M109.6,35.2c0,.07-.05.16-.1.23-.03.04-.06.08-.1.12.02-.04.03-.08.04-.11.02-.06.03-.11,0-.12-.02-.01-.06-.01-.07-.04-.02-.02-.04-.05-.04-.09,0-.08.05-.14.12-.14s.13.05.13.14Z"/>
          <path class="cls-1" d="M111.99,35.04c0,.11.03.17.05.21.02.02.04.04.06.05h-.45s.04-.02.06-.04c.03-.04.06-.1.06-.22v-1.58c0-.11-.04-.16-.08-.18-.03-.01-.05-.03-.08-.03l.38-.16v1.95Z"/>
          <path class="cls-1" d="M114.68,34.19c0,.63-.35,1.08-.8,1.14-.17.03-.31,0-.41-.04-.06-.02-.11-.04-.15-.07v-.11c-.03-.05-.03-.1-.02-.09,0,.02.21.26.55.22.24-.04.38-.22.46-.43.11-.28.11-.61.11-.62-.14.17-.28.25-.44.28-.21.04-.63-.07-.69-.56-.04-.26.05-.45.15-.59.12-.16.27-.22.42-.24.52-.07.81.44.81,1.11ZM113.87,33.15c-.21.03-.42.29-.37.69.04.36.23.61.54.53.25-.05.39-.33.39-.34.01-.83-.39-.9-.55-.88Z"/>
          <path class="cls-1" d="M115.99,33.34l-.25.61s.04-.01.06-.01c.04-.01.1-.01.19-.01.3,0,.75.17.75.67,0,.23-.11.41-.26.54-.17.15-.35.2-.57.2-.16,0-.28-.02-.37-.05-.05-.02-.09-.04-.12-.06l-.04-.18s.07.08.12.11c.09.05.21.11.4.11.34,0,.6-.3.6-.67,0-.46-.35-.55-.48-.57-.22-.03-.44.04-.48.07.02-.05.04-.1.06-.15l.14-.33.2-.49h.61c.09,0,.17-.02.2-.03l-.12.26h-.64Z"/>
          <path class="cls-1" d="M118.94,34.5c.04.26-.05.46-.15.58-.13.16-.27.23-.42.25-.53.06-.81-.43-.81-1.11,0-.62.35-1.09.79-1.13.17-.02.32,0,.41.04.06.02.11.04.15.07,0,.04.01.08.01.11.01.05.01.1,0,.09-.01-.03-.2-.26-.55-.22-.25.04-.39.23-.46.44-.11.29-.11.6-.11.61.14-.17.3-.24.45-.27.22-.04.62.06.69.55ZM118.73,34.57c-.05-.37-.24-.59-.54-.54-.25.06-.39.33-.39.34-.01.84.41.9.56.89.21-.04.42-.29.38-.69Z"/>
        </g>
      </g>
    </g>
  </g>
</svg>