<?xml version="1.0" encoding="UTF-8"?>
<svg id="Layer_2" data-name="Layer 2" xmlns="http://www.w3.org/2000/svg" xmlns:xlink="http://www.w3.org/1999/xlink" viewBox="0 0 218.67 31.21">
  <defs>
    <style>
      .cls-1 {
        clip-path: url(#clippath-20);
      }

      .cls-2 {
        clip-path: url(#clippath-11);
      }

      .cls-3 {
        clip-path: url(#clippath-16);
      }

      .cls-4 {
        fill: #282828;
      }

      .cls-4, .cls-5, .cls-6, .cls-7 {
        stroke-width: 0px;
      }

      .cls-8 {
        clip-path: url(#clippath-2);
      }

      .cls-9 {
        clip-path: url(#clippath-13);
      }

      .cls-10 {
        clip-path: url(#clippath-15);
      }

      .cls-11 {
        clip-path: url(#clippath-6);
      }

      .cls-5, .cls-7 {
        fill: none;
      }

      .cls-6 {
        fill: #df1f26;
      }

      .cls-12 {
        clip-path: url(#clippath-7);
      }

      .cls-13 {
        clip-path: url(#clippath-21);
      }

      .cls-14 {
        clip-path: url(#clippath-1);
      }

      .cls-15 {
        clip-path: url(#clippath-4);
      }

      .cls-7 {
        clip-rule: evenodd;
      }

      .cls-16 {
        clip-path: url(#clippath-12);
      }

      .cls-17 {
        clip-path: url(#clippath-22);
      }

      .cls-18 {
        clip-path: url(#clippath-9);
      }

      .cls-19 {
        clip-path: url(#clippath);
      }

      .cls-20 {
        clip-path: url(#clippath-19);
      }

      .cls-21 {
        clip-path: url(#clippath-3);
      }

      .cls-22 {
        clip-path: url(#clippath-8);
      }

      .cls-23 {
        clip-path: url(#clippath-18);
      }

      .cls-24 {
        clip-path: url(#clippath-14);
      }

      .cls-25 {
        clip-path: url(#clippath-17);
      }

      .cls-26 {
        clip-path: url(#clippath-5);
      }

      .cls-27 {
        clip-path: url(#clippath-10);
      }

      .cls-28 {
        clip-path: url(#clippath-23);
      }
    </style>
    <clipPath id="clippath">
      <path class="cls-7" d="M16.45,5.93c.5,0,.9.14,1.2.42.29.28.39.47.39.88v7.44c0,.41-.1.91-.39,1.19-.29.28-.69.42-1.2.42h-1.45V5.93h1.45ZM14.94,3.18h-4.88l1.3,1.41v13.17l-1.3,1.41h.05s.02,0,.04,0h.64s.07,0,.11,0h.64s.09,0,.14,0h.57s.1,0,.14,0h.57s.09,0,.14,0h.64s.08,0,.11,0h.61s.04,0,.05,0h.16c.62,0,3.12.12,4.3-.36.63-.25,1.16-.55,1.58-.95.42-.4.73-.86.93-1.38.2-.52.3-1.07.3-1.64v-7.44c0-.58-.1-1.12-.3-1.63-.2-.51-.51-.97-.93-1.36-.42-.39-.83-.66-1.46-.88-.06-.02-.13-.04-.19-.07l-.08-.02c-.56-.16-1.29-.24-3.89-.24ZM15.84,0c6.01-.05,10.97,2.04,10.97,2.04v9.04c-.05,2.12-.34,5.34-3.88,8.96-.84.86-5.73,5.04-5.73,5.04v.24s2.35-1.72,4.76-3.62l.3-.23c1.87-1.49,3.73-3.04,4.51-3.96.56-.65,1.19-1.26,1.69-2.39.88-1.98.83-4.03.8-7.14,0-.09,0-.16,0-.21-.37-.22-.91-.52-1.51-.8v-2.66c1.75.66,3.24,1.65,3.32,1.71l.55.37v.16s0,.04,0,.06v.4s0,.06,0,.09v.67s0,.04,0,.06v.09s0,.03,0,.03c.05,4.59.17,7.01-3.17,10.41-1.19,1.21-3.83,3.14-9.38,6.83l-6.02,4.13v.11l5.27-2.45c.91.76,1.48,1.22,1.91,1.58.82.69,1.03,1.02,1.07,1.55v1.12h-10.99v-1.12c.01-.45.25-.86,1.07-1.55.24-.2,2.69-2.22,2.73-2.24,0,0-.08-.06-.24-.17l-.1-.07c-.28-.19-.71-.5-1.27-.88-3.98-2.72-8.26-5.77-9.31-6.82C.37,15.55.01,13.22,0,9.64v-.41c0-.42,0-.85,0-1.3v-.12s0-.04,0-.06v-.76s0-.06,0-.09v-.53s.55-.37.55-.37c.08-.06,1.57-1.05,3.31-1.71v2.66c-.6.28-1.13.57-1.5.79,0,.05,0,.12,0,.21-.03,2.99.01,5.6.65,6.92.34.87.92,1.75,1.71,2.69.69.82,2.26,2.15,3.94,3.47l.3.23c.15.12.3.23.45.35l.3.23c2.38,1.84,4.66,3.46,4.66,3.46v-.24s-1.33-1.16-2.72-2.39l-.51-.45c-1.09-.97-2.12-1.9-2.47-2.25-3.55-3.62-3.82-6.79-3.87-8.91V2.04S8.5.06,15.84,0Z"/>
    </clipPath>
    <clipPath id="clippath-1">
      <rect class="cls-5" x="-33.79" y="-65.63" width="286.01" height="286.01"/>
    </clipPath>
    <clipPath id="clippath-2">
      <path class="cls-7" d="M47.7,20.29c0,.52-.19.95-.56,1.31-.37.36-.88.53-1.51.53h-1.73v-13.14h1.73c.64,0,1.14.18,1.51.54.37.36.56.79.56,1.31v9.45ZM50.83,7.05c-.53-.5-1.2-.89-2.01-1.17-.81-.28-1.76-.43-2.86-.43h-8.12l1.34,1.84v16.64s-1.34,1.84-1.34,1.84h8.12c1.1,0,2.05-.15,2.86-.44.81-.29,1.47-.69,2.01-1.2.53-.51.92-1.09,1.18-1.75.26-.66.38-1.35.38-2.08v-9.45c0-.73-.13-1.42-.38-2.07-.26-.65-.65-1.22-1.18-1.72Z"/>
    </clipPath>
    <clipPath id="clippath-3">
      <rect class="cls-5" x="-33.79" y="-65.63" width="286.01" height="286.01"/>
    </clipPath>
    <clipPath id="clippath-4">
      <path class="cls-7" d="M63.14,13.28c0,1.07-.39,1.66-1.46,1.7h-2.1v-6.2h1.87c.52,0,1.72.08,1.69,1.6v2.9ZM65.8,16.85c.37-.18.71-.41,1.04-.69.32-.28,1.07-1.09,1.06-2.67v-3.69c0-.43-.04-.89-.12-1.39-.08-.5-.27-.97-.58-1.42-.31-.44-.78-.81-1.41-1.11-.63-.29-1.49-.44-2.59-.44h-8.31v20.32h4.69v-7.05h2.77c.57,0,1.17.29,1.17,1.09v5.96h4.78v-5.74c0-.97-.29-2.82-2.5-3.18Z"/>
    </clipPath>
    <clipPath id="clippath-5">
      <rect class="cls-5" x="-33.79" y="-65.63" width="286.01" height="286.01"/>
    </clipPath>
    <clipPath id="clippath-6">
      <path class="cls-7" d="M70.58,10.1v10.98c-.03,3.66,2.43,4.66,4.62,4.68h6.41v-3.78h-5.47c-.96,0-.86-.95-.86-.95v-3.59h5.62v-3.74h-5.62v-3.5s-.06-1.03.87-1.03h5.46v-3.74h-6.11c-4.36,0-4.91,2.93-4.91,4.65"/>
    </clipPath>
    <clipPath id="clippath-7">
      <rect class="cls-5" x="-33.79" y="-65.63" width="286.01" height="286.01"/>
    </clipPath>
    <clipPath id="clippath-8">
      <path class="cls-7" d="M92.97,14.97h-4.18v-6.19s1.66,0,2.13,0c1.53,0,2.02.66,2.05,1.96v4.23ZM91.4,5.45h-7.3v20.32h4.69v-7.06h4.18v7.06h4.78v-14.49c0-4.4-2.98-5.83-6.35-5.83Z"/>
    </clipPath>
    <clipPath id="clippath-9">
      <rect class="cls-5" x="-33.79" y="-65.63" width="286.01" height="286.01"/>
    </clipPath>
    <clipPath id="clippath-10">
      <path class="cls-7" d="M115.11,5.45c-1.88,0-3.47.35-4.61.89-.37-.24-.81-.44-1.32-.59-.5-.15-3.69-.73-8.94.25v19.76h4.69V9.66c2.13-.25,2.69.03,2.9.16.78.45.78,1.37.78,1.74v14.2h4.12v-14.67c0-.32-.03-.66-.08-1.02.21-.09.41-.16.81-.25.41-.09,1.35-.3,2.11.08.36.18.8.56.8,1.57v14.31h4.69v-14.62c0-1.51-.09-3.11-1.33-4.24-.82-.74-1.92-1.46-4.63-1.46"/>
    </clipPath>
    <clipPath id="clippath-11">
      <rect class="cls-5" x="-33.79" y="-65.63" width="286.01" height="286.01"/>
    </clipPath>
    <clipPath id="clippath-12">
      <path class="cls-7" d="M133.93,8.93c-.41,0-.75.06-1.01.17-.26.11-.46.26-.61.44-.15.18-.25.39-.3.62-.05.23-.08.46-.08.69,0,.54.21.99.63,1.35.42.36.96.71,1.6,1.04.65.33,1.34.68,2.08,1.04.74.36,1.43.81,2.07,1.34.64.53,1.16,1.18,1.58,1.96.41.78.62,1.74.62,2.88v.45c0,.15-.02.26-.05.35-.24,1.58-.89,2.72-1.94,3.43-1.05.71-2.6,1.07-4.63,1.07-2.17,0-3.82-.54-4.94-1.61-1.12-1.07-1.68-2.49-1.68-4.26h4.63c0,.31.02.61.05.9.03.29.12.54.26.77.14.23.34.4.61.53.27.13.63.2,1.1.2.41,0,.75-.06.99-.17.25-.11.45-.27.6-.46.15-.19.25-.4.31-.62.06-.23.09-.46.09-.7,0-.75-.2-1.35-.6-1.81-.39-.46-.9-.86-1.51-1.21-.61-.35-1.28-.68-1.99-.99-.72-.31-1.4-.69-2.04-1.14-.65-.45-1.2-1.01-1.65-1.68-.46-.67-.72-1.53-.79-2.59-.02-.14-.02-.31-.02-.52s.02-.35.05-.44c.24-1.44.91-2.55,2-3.34,1.09-.79,2.61-1.18,4.54-1.18,1.14,0,2.13.15,2.97.44.84.29,1.54.7,2.08,1.22.54.52.95,1.14,1.21,1.86.27.72.4,1.5.4,2.35h-4.65c0-.29-.02-.59-.06-.87-.04-.29-.13-.54-.27-.77-.14-.22-.34-.41-.59-.54-.26-.14-.61-.21-1.06-.21"/>
    </clipPath>
    <clipPath id="clippath-13">
      <rect class="cls-5" x="-33.79" y="-65.63" width="286.01" height="286.01"/>
    </clipPath>
    <clipPath id="clippath-14">
      <path class="cls-7" d="M164.74,8.94c-.46,0-.83.07-1.1.21-.27.14-.47.31-.61.52-.14.21-.23.44-.26.7-.03.26-.05.52-.05.78v8.91c0,.26.02.52.05.78.03.26.12.49.26.7.14.21.34.38.61.52.27.14.63.21,1.1.21s.8-.07,1.06-.21c.26-.14.46-.31.6-.52.14-.21.23-.44.27-.7.04-.26.06-.52.06-.78v-8.91c0-.26-.02-.52-.06-.78-.04-.26-.13-.5-.27-.7-.14-.21-.34-.38-.6-.52-.26-.14-.61-.21-1.06-.21ZM158.09,11.12c0-.85.15-1.63.44-2.33.29-.7.72-1.3,1.28-1.8.56-.5,1.25-.88,2.07-1.15.82-.27,1.76-.4,2.83-.4,1.12,0,2.1.14,2.94.42.84.28,1.53.67,2.08,1.17.55.5.97,1.1,1.24,1.8.28.69.41,1.46.41,2.29v9.01c0,.83-.14,1.59-.41,2.28-.28.69-.69,1.28-1.24,1.77-.55.49-1.25.88-2.08,1.16-.84.28-1.81.42-2.94.42s-2.01-.13-2.83-.4c-.82-.27-1.51-.65-2.07-1.15-.56-.49-.99-1.09-1.28-1.77-.29-.69-.44-1.45-.44-2.31v-9.01Z"/>
    </clipPath>
    <clipPath id="clippath-15">
      <rect class="cls-5" x="-33.79" y="-65.63" width="286.01" height="286.01"/>
    </clipPath>
    <clipPath id="clippath-16">
      <polygon class="cls-7" points="193.82 25.77 193.82 9.18 188.85 9.18 188.85 5.45 203.44 5.45 203.44 9.18 198.47 9.18 198.47 25.77 193.82 25.77"/>
    </clipPath>
    <clipPath id="clippath-17">
      <rect class="cls-5" x="-33.79" y="-65.63" width="286.01" height="286.01"/>
    </clipPath>
    <clipPath id="clippath-18">
      <path class="cls-7" d="M212.03,8.93c-.41,0-.75.06-1.01.17-.26.11-.46.26-.61.44-.15.18-.25.39-.3.62-.05.23-.08.46-.08.69,0,.54.21.99.63,1.35.42.36.96.71,1.6,1.04.65.33,1.34.68,2.08,1.04.74.36,1.43.81,2.07,1.34.64.53,1.16,1.18,1.58,1.96.41.78.62,1.74.62,2.88v.45c0,.15-.02.26-.05.35-.24,1.58-.89,2.72-1.94,3.43-1.05.71-2.6,1.07-4.63,1.07-2.17,0-3.82-.54-4.94-1.61-1.12-1.07-1.68-2.49-1.68-4.26h4.63c0,.31.02.61.05.9.03.29.12.54.26.77.14.23.34.4.61.53.27.13.63.2,1.1.2.41,0,.75-.06,1-.17.25-.11.45-.27.59-.46.15-.19.25-.4.31-.62.06-.23.09-.46.09-.7,0-.75-.2-1.35-.6-1.81-.4-.46-.9-.86-1.51-1.21-.61-.35-1.28-.68-1.99-.99-.72-.31-1.39-.69-2.04-1.14-.65-.45-1.2-1.01-1.65-1.68-.46-.67-.72-1.53-.79-2.59-.02-.14-.03-.31-.03-.52s.02-.35.05-.44c.24-1.44.91-2.55,2-3.34,1.09-.79,2.61-1.18,4.54-1.18,1.14,0,2.13.15,2.97.44.84.29,1.54.7,2.08,1.22.54.52.95,1.14,1.21,1.86.27.72.4,1.5.4,2.35h-4.65c0-.29-.02-.59-.06-.87s-.13-.54-.27-.77c-.14-.22-.34-.41-.6-.54-.26-.14-.61-.21-1.06-.21"/>
    </clipPath>
    <clipPath id="clippath-19">
      <rect class="cls-5" x="-33.79" y="-65.63" width="286.01" height="286.01"/>
    </clipPath>
    <clipPath id="clippath-20">
      <path class="cls-7" d="M182.06,13.28c0,1.07-.39,1.66-1.46,1.7h-2.1v-6.2h1.87c.52,0,1.72.08,1.69,1.6v2.9ZM186.59,18.4c-.26-.41-.53-.73-.83-.96-.36-.27-.77-.46-1.21-.59.36-.18.7-.41,1.01-.69.26-.25.5-.57.71-.96.22-.39.32-.88.32-1.47v-3.93c0-.43-.04-.89-.12-1.39-.08-.5-.27-.97-.57-1.42-.3-.45-.76-.82-1.37-1.11-.61-.29-1.45-.44-2.52-.44h-8.14v20.32h4.63v-7.05h2.12c.43,0,.76,0,1,.03.23.02.41.09.52.21.11.12.18.32.19.57.02.26.03.63.03,1.11v.95c0,.49,0,1.02-.01,1.59,0,.57-.01,1.1-.01,1.6v.99h4.65v-5.74c0-.68-.13-1.22-.39-1.63Z"/>
    </clipPath>
    <clipPath id="clippath-21">
      <rect class="cls-5" x="-33.79" y="-65.63" width="286.01" height="286.01"/>
    </clipPath>
    <clipPath id="clippath-22">
      <path class="cls-7" d="M151.2,13.28c0,1.07-.39,1.66-1.46,1.7h-2.1v-6.2h1.87c.52,0,1.72.08,1.69,1.6v2.9ZM155.5,8.39c-.07-.5-.25-.97-.56-1.4-.3-.44-.75-.8-1.36-1.1-.6-.29-1.44-.44-2.51-.44h-8.01v20.32h4.58v-7.06h3.64c1.02,0,1.82-.15,2.39-.44.58-.29,1.01-.68,1.29-1.15.29-.47.46-1,.53-1.59.07-.59.1-1.18.1-1.76v-3.98c0-.43-.04-.89-.1-1.39Z"/>
    </clipPath>
    <clipPath id="clippath-23">
      <rect class="cls-5" x="-33.79" y="-65.63" width="286.01" height="286.01"/>
    </clipPath>
  </defs>
  <g id="Layer_2-2" data-name="Layer 2">
    <g>
      <g class="cls-19">
        <g class="cls-14">
          <rect class="cls-6" x="-2.45" y="-2.45" width="36.53" height="36.11"/>
        </g>
      </g>
      <g class="cls-8">
        <g class="cls-21">
          <rect class="cls-6" x="35.4" y="3" width="19.44" height="25.22"/>
        </g>
      </g>
      <g class="cls-15">
        <g class="cls-26">
          <rect class="cls-6" x="52.44" y="3" width="18.3" height="25.22"/>
        </g>
      </g>
      <g class="cls-11">
        <g class="cls-12">
          <rect class="cls-6" x="68.14" y="3" width="15.92" height="25.22"/>
        </g>
      </g>
      <g class="cls-22">
        <g class="cls-18">
          <rect class="cls-6" x="81.65" y="3" width="18.55" height="25.22"/>
        </g>
      </g>
      <g class="cls-27">
        <g class="cls-2">
          <rect class="cls-6" x="97.79" y="3" width="25.73" height="25.22"/>
        </g>
      </g>
      <g class="cls-16">
        <g class="cls-9">
          <rect class="cls-4" x="124.84" y="3" width="18.19" height="25.22"/>
        </g>
      </g>
      <g class="cls-24">
        <g class="cls-10">
          <rect class="cls-4" x="155.65" y="3" width="18.19" height="25.22"/>
        </g>
      </g>
      <g class="cls-3">
        <g class="cls-25">
          <rect class="cls-4" x="186.41" y="3" width="19.48" height="25.22"/>
        </g>
      </g>
      <g class="cls-23">
        <g class="cls-20">
          <rect class="cls-4" x="202.93" y="3" width="18.19" height="25.22"/>
        </g>
      </g>
      <g class="cls-1">
        <g class="cls-13">
          <rect class="cls-4" x="171.42" y="3" width="18.01" height="25.22"/>
        </g>
      </g>
      <g class="cls-17">
        <g class="cls-28">
          <rect class="cls-4" x="140.62" y="3" width="17.44" height="25.22"/>
        </g>
      </g>
    </g>
  </g>
</svg>