<?xml version="1.0" encoding="UTF-8"?>
<svg id="Layer_2" data-name="Layer 2" xmlns="http://www.w3.org/2000/svg" viewBox="0 0 94.78 50.46">
  <defs>
    <style>
      .cls-1, .cls-2, .cls-3 {
        fill-rule: evenodd;
      }

      .cls-1, .cls-2, .cls-3, .cls-4, .cls-5 {
        stroke-width: 0px;
      }

      .cls-1, .cls-4 {
        fill: #fff;
      }

      .cls-2 {
        fill: #ffcb05;
      }

      .cls-3, .cls-5 {
        fill: #00539b;
      }
    </style>
  </defs>
  <g id="Layer_2-2" data-name="Layer 2">
    <g>
      <rect class="cls-4" width="94.78" height="50.46"/>
      <g>
        <path class="cls-3" d="M2.77,1.44c-.72,0-1.39.6-1.39,1.39v32.7c0,.78.66,1.39,1.39,1.39h34.32V1.44H2.77Z"/>
        <path class="cls-2" d="M92.01,1.44h-53.71v35.47h53.71c.72,0,1.38-.6,1.38-1.39V2.83c0-.78-.66-1.39-1.38-1.39Z"/>
        <polygon class="cls-1" points="21.14 30.35 21.14 30.41 21.14 30.41 21.14 30.41 21.14 30.41 21.2 30.41 21.2 30.41 21.2 30.41 21.2 30.41 21.14 30.35"/>
        <polygon class="cls-3" points="44.44 5.72 48.84 5.72 48.84 28.72 58.11 28.72 58.11 32.64 44.44 32.64 44.44 5.72"/>
        <rect class="cls-5" x="62.93" y="5.72" width="4.46" height="26.92"/>
        <path class="cls-3" d="M82.86,23.12h4.4c0,3.13-.54,5.6-1.69,7.41-1.14,1.81-2.47,2.71-5.3,2.71-3.31,0-4.88-.84-6.14-2.59-1.27-1.69-1.93-4.52-1.93-8.49v-5.72c0-4.28.66-7.23,1.99-8.85,1.38-1.63,2.77-2.47,5.66-2.47s4.34.72,5.54,2.23c1.2,1.45,1.81,3.68,1.81,6.74l-4.52.06c0-1.69-.18-2.95-.54-3.74-.3-.78-.97-1.2-1.93-1.2-2.35,0-3.5,1.87-3.5,5.6v8.73c0,2.05.3,3.49.91,4.33.6.84,1.5,1.26,2.65,1.26.9,0,1.5-.42,1.93-1.33.42-.9.66-2.47.66-4.69Z"/>
        <polygon class="cls-3" points="1.38 45.64 2.05 45.64 2.05 48.36 3.43 48.36 3.43 48.96 1.38 48.96 1.38 45.64"/>
        <rect class="cls-5" x="3.98" y="45.64" width=".66" height="3.31"/>
        <polygon class="cls-3" points="5.48 45.64 7.47 45.64 7.47 46.19 6.14 46.19 6.14 47.09 6.92 47.09 6.92 47.63 6.14 47.63 6.14 48.96 5.48 48.96 5.48 45.64"/>
        <polygon class="cls-3" points="8.01 45.64 10.24 45.64 10.24 46.19 8.67 46.19 8.67 46.97 9.63 46.97 9.63 47.45 8.67 47.45 8.67 48.36 10.24 48.36 10.24 48.96 8.01 48.96 8.01 45.64"/>
        <rect class="cls-5" x="12.23" y="45.64" width=".66" height="3.31"/>
        <polygon class="cls-3" points="13.73 45.64 14.39 45.64 15.72 47.87 15.72 45.64 16.38 45.64 16.38 48.96 15.72 48.96 14.33 46.67 14.33 48.96 13.73 48.96 13.73 45.64"/>
        <path class="cls-3" d="M17.52,48c.12.18.24.3.36.36.06.06.18.12.36.12s.3-.06.36-.12c.12-.12.18-.18.18-.3s-.06-.18-.12-.3c-.06-.06-.24-.12-.54-.18-.36-.12-.6-.24-.78-.36-.18-.18-.24-.42-.24-.66,0-.3.06-.48.24-.66.24-.18.48-.3.84-.3.18,0,.36.06.48.12.18.06.3.12.42.24.06.06.12.12.18.24l-.54.24c-.06-.12-.18-.24-.24-.3-.12-.06-.24-.06-.36-.06s-.24.06-.3.12c-.12.06-.18.18-.18.3,0,.06.06.18.12.24.06.06.24.12.54.18.3.06.48.18.66.24.12.12.24.24.3.36.06.18.12.3.12.49s-.06.3-.18.48c-.06.18-.18.3-.36.36-.18.12-.42.18-.66.18s-.42-.06-.6-.12c-.12-.06-.3-.18-.42-.3-.06-.12-.12-.18-.18-.36l.54-.24Z"/>
        <path class="cls-3" d="M19.99,45.64h.66v1.99c0,.3.06.48.18.6.12.12.24.18.48.18.12,0,.24-.06.3-.06.12-.06.18-.18.24-.3.06-.06.12-.24.12-.42v-1.99h.66v2.1c0,.42-.12.73-.36.91-.24.24-.55.36-.97.36-.24,0-.48-.06-.66-.12-.12-.06-.24-.12-.3-.18-.12-.06-.18-.18-.24-.36-.06-.12-.12-.36-.12-.61v-2.1Z"/>
        <path class="cls-3" d="M24.57,47.09c.18,0,.36-.06.48-.12.06-.12.12-.18.12-.3s-.06-.24-.18-.3c-.06-.12-.24-.12-.42-.12v-.6c.3,0,.54.06.66.12.18.06.36.18.42.36.12.18.18.36.18.54s-.06.36-.12.48c-.12.12-.3.24-.48.36l.6,1.45h-.66l-.54-1.33h-.06v-.54ZM24.03,46.25v.84h.54v.54h-.54v1.33h-.66v-3.31h1.2v.6h-.54Z"/>
        <path class="cls-3" d="M27.52,46.55h0v-.9h.36l1.09,3.31h-.66l-.24-.78h-.54v-.48h.36l-.36-1.14ZM27.52,46.55l-.36,1.14h.36v.48h-.48l-.3.78h-.6l1.03-3.31h.36v.9Z"/>
        <polygon class="cls-3" points="29.39 45.64 30.11 45.64 31.43 47.87 31.43 45.64 32.09 45.64 32.09 48.96 31.43 48.96 30.05 46.67 30.05 48.96 29.39 48.96 29.39 45.64"/>
        <path class="cls-3" d="M35.35,48c-.06.18-.12.36-.18.42-.12.18-.24.36-.42.42-.18.12-.42.18-.66.18s-.48-.06-.72-.18c-.24-.18-.42-.36-.54-.6-.12-.24-.18-.54-.18-.9s.06-.66.18-.9c.12-.3.3-.48.54-.66.24-.12.48-.18.72-.18s.42.06.6.12c.18.06.3.18.42.36.06.12.12.24.18.42l-.61.18c0-.18-.12-.3-.18-.42-.12-.06-.3-.12-.42-.12-.24,0-.42.12-.54.3-.12.24-.18.54-.18.9,0,.24,0,.42.06.6.06.12.18.3.24.36.12.06.24.12.36.12.18,0,.36-.06.48-.18.12-.12.18-.24.24-.42l.6.18Z"/>
        <polygon class="cls-3" points="35.89 45.64 38.06 45.64 38.06 46.19 36.49 46.19 36.49 46.97 37.46 46.97 37.46 47.45 36.49 47.45 36.49 48.36 38.06 48.36 38.06 48.96 35.89 48.96 35.89 45.64"/>
        <path class="cls-3" d="M42.51,48c-.06.18-.12.36-.18.42-.12.18-.24.36-.42.42-.18.12-.42.18-.6.18-.3,0-.54-.06-.72-.18-.24-.18-.42-.36-.54-.6-.12-.24-.18-.54-.18-.9s.06-.66.18-.9c.12-.3.3-.48.54-.66.24-.12.48-.18.72-.18.18,0,.36.06.54.12.18.06.3.18.42.36.12.12.18.24.24.42l-.6.18c-.06-.18-.12-.3-.24-.42-.12-.06-.24-.12-.42-.12s-.36.12-.54.3c-.12.24-.18.54-.18.9,0,.24.06.42.12.6.06.12.12.3.24.36.06.06.18.12.3.12.18,0,.36-.06.48-.18.12-.12.18-.24.24-.42l.6.18Z"/>
        <path class="cls-3" d="M44.32,48.42h0c.24,0,.42-.06.54-.24.18-.18.24-.48.24-.84,0-.48-.06-.78-.24-.96-.18-.12-.3-.24-.54-.24v-.54c.3,0,.54.06.66.18.3.12.48.3.6.54.12.24.18.6.18,1.02,0,.54-.12.96-.36,1.27-.3.24-.61.42-1.08.42h0v-.6ZM44.32,46.13c-.24,0-.42.12-.54.3-.12.18-.24.48-.24.84,0,.42.12.73.24.9.12.18.36.24.54.24v.6c-.42,0-.78-.18-1.02-.42-.3-.3-.42-.72-.42-1.33,0-.3.06-.6.18-.9.06-.12.12-.24.24-.36.12-.18.3-.24.42-.3.18-.06.36-.12.54-.12h.06v.54h0Z"/>
        <path class="cls-3" d="M47.57,47.09c.18,0,.3-.06.42-.12.12-.12.18-.18.18-.3s-.06-.24-.18-.3c-.06-.12-.24-.12-.42-.12v-.6c.3,0,.54.06.66.12.18.06.36.18.42.36.12.18.18.36.18.54s-.06.36-.12.48c-.12.12-.3.24-.48.36l.6,1.45h-.66l-.54-1.33h-.06v-.54ZM47.03,46.25v.84h.55v.54h-.55v1.33h-.66v-3.31h1.21v.6h-.55Z"/>
        <path class="cls-3" d="M50.64,47.09c.18,0,.36-.06.48-.12.06-.12.12-.18.12-.36,0-.12-.06-.18-.12-.3-.12-.06-.24-.12-.48-.12v-.54c.3,0,.48.06.66.12.18.06.3.12.42.3.12.12.18.3.18.54,0,.18,0,.3-.12.48,0,.06-.12.18-.18.24-.12.12-.24.18-.3.18-.18.12-.42.12-.66.12v-.54ZM50.1,46.19v.9h.54v.54h-.54v1.33h-.66v-3.31h1.2v.54h-.54Z"/>
        <path class="cls-3" d="M53.77,48.42h0c.24,0,.42-.06.54-.24.18-.18.24-.48.24-.84,0-.48-.12-.78-.3-.96-.12-.12-.3-.24-.48-.24v-.54c.3,0,.48.06.66.18.24.12.48.3.6.54.12.24.18.6.18,1.02,0,.54-.12.96-.42,1.27-.24.24-.6.42-1.02.42h0v-.6ZM53.77,46.13c-.24,0-.42.12-.54.3-.18.18-.24.48-.24.84,0,.42.06.73.24.9.12.18.3.24.54.24v.6c-.42,0-.78-.18-1.03-.42-.3-.3-.42-.72-.42-1.33,0-.3.06-.6.18-.9.06-.12.12-.24.24-.36.12-.18.24-.24.42-.3.18-.06.36-.12.54-.12h.06v.54h0Z"/>
        <path class="cls-3" d="M57.03,47.09c.18,0,.3-.06.42-.12.12-.12.12-.18.12-.3s0-.24-.12-.3c-.06-.12-.24-.12-.42-.12v-.6c.3,0,.54.06.66.12.18.06.3.18.42.36.12.18.18.36.18.54s-.06.36-.18.48c-.06.12-.24.24-.48.36l.6,1.45h-.6l-.54-1.33h-.06v-.54ZM56.48,46.25v.84h.54v.54h-.54v1.33h-.66v-3.31h1.2v.6h-.54Z"/>
        <path class="cls-3" d="M59.98,47.69h.36l-.36-1.14v-.9h.36l1.02,3.31h-.6l-.24-.78h-.54v-.48ZM59.98,46.55l-.36,1.14h.36v.48h-.54l-.24.78h-.6l1.02-3.31h.36v.9Z"/>
        <polygon class="cls-3" points="61.24 45.64 63.71 45.64 63.71 46.19 62.81 46.19 62.81 48.96 62.14 48.96 62.14 46.19 61.24 46.19 61.24 45.64"/>
        <rect class="cls-5" x="64.31" y="45.64" width=".66" height="3.31"/>
        <path class="cls-3" d="M67.02,48.42h.06c.18,0,.36-.06.54-.24.12-.18.18-.48.18-.84,0-.48-.06-.78-.24-.96-.12-.12-.3-.24-.54-.24v-.54c.3,0,.54.06.72.18.24.12.42.3.54.54.12.24.18.6.18,1.02,0,.54-.12.96-.36,1.27-.3.24-.6.42-1.02.42h-.06v-.6ZM67.02,46.13c-.18,0-.36.12-.54.3-.12.18-.18.48-.18.84,0,.42.06.73.18.9.18.18.36.24.54.24v.6c-.42,0-.78-.18-1.03-.42-.24-.3-.42-.72-.42-1.33,0-.3.06-.6.18-.9.06-.12.18-.24.3-.36.12-.18.24-.24.42-.3.12-.06.3-.12.48-.12h.06v.54h0Z"/>
        <polygon class="cls-3" points="69.07 45.64 69.79 45.64 71.12 47.87 71.12 45.64 71.72 45.64 71.72 48.96 71.12 48.96 69.73 46.67 69.73 48.96 69.07 48.96 69.07 45.64"/>
        <path class="cls-3" d="M75.15,48.42h0c.24,0,.42-.06.54-.24.18-.18.24-.48.24-.84,0-.48-.12-.78-.24-.96-.18-.12-.36-.24-.54-.24v-.54c.3,0,.48.06.66.18.24.12.48.3.6.54.12.24.18.6.18,1.02,0,.54-.12.96-.42,1.27-.24.24-.6.42-1.02.42h0v-.6ZM75.15,46.13c-.24,0-.42.12-.54.3-.18.18-.24.48-.24.84,0,.42.12.73.24.9.12.18.3.24.54.24v.6c-.42,0-.78-.18-1.02-.42-.3-.3-.42-.72-.42-1.33,0-.3.06-.6.18-.9.06-.12.12-.24.24-.36.12-.18.3-.24.42-.3.18-.06.36-.12.54-.12h.06v.54h0Z"/>
        <polygon class="cls-3" points="77.2 45.64 79.19 45.64 79.19 46.19 77.86 46.19 77.86 47.09 78.64 47.09 78.64 47.63 77.86 47.63 77.86 48.96 77.2 48.96 77.2 45.64"/>
        <rect class="cls-5" x="81.17" y="45.64" width=".66" height="3.31"/>
        <polygon class="cls-3" points="82.62 45.64 83.34 45.64 84.66 47.87 84.66 45.64 85.33 45.64 85.33 48.96 84.66 48.96 83.28 46.67 83.28 48.96 82.62 48.96 82.62 45.64"/>
        <path class="cls-3" d="M87.38,48.36c.06-.06.18-.06.24-.12.12-.06.18-.18.3-.36.06-.18.12-.36.12-.6,0-.36-.12-.6-.3-.78-.06-.12-.24-.18-.36-.24v-.6c.24,0,.48.12.66.24.24.12.36.3.48.54.12.24.18.54.18.84s-.06.54-.12.78c-.12.24-.24.43-.42.54-.12.12-.24.18-.42.24-.12.06-.24.06-.36.12v-.6ZM86.71,46.19v2.17h.66v.6h-1.33v-3.31h1.33v.6c-.12,0-.18-.06-.36-.06h-.3Z"/>
        <rect class="cls-5" x="89.36" y="45.64" width=".66" height="3.31"/>
        <path class="cls-3" d="M91.95,47.69h.36l-.36-1.14v-.9h.36l1.03,3.31h-.6l-.24-.78h-.54v-.48ZM91.95,46.55l-.36,1.14h.36v.48h-.54l-.24.78h-.66l1.08-3.31h.36v.9Z"/>
        <path class="cls-1" d="M17.71,14.81c-.9.18-1.57.54-1.57.96,0,.61.66,1.63,1.57,2.23v-1.87c-.72-.12-1.21-.36-1.21-.54,0-.24.48-.48,1.21-.67v-.12h0ZM19.45,14.63c.42,0,.84.06,1.2.12v.18c-.36-.06-.78-.12-1.27-.12-.12.42-.18.72-.06.84.18.48.85.48,1.32.48v1.99c-.42.24-.9.36-1.32.36-.6,0-1.15-.18-1.62-.48v-1.87c.48.06,1.26.06,1.26-.42,0-.3-.12-.54-.3-.78,0-.06-.06-.06-.06-.12-.36.06-.6.06-.9.12v-.12c.24-.06.54-.12.78-.12-.12-.24-.24-.42-.36-.6-.12-.36-.3-.72-.18-1.14.18-.66.84-1.26,1.03-2.65,0,0,.36.9.48,1.2.12.3.6,1.32.3,2.23-.12.36-.24.66-.3.9h0ZM20.65,18.12c1.02-.6,1.75-1.69,1.75-2.35,0-.48-.72-.84-1.75-1.02v.18c.84.12,1.39.42,1.39.67,0,.18-.48.42-1.21.54h-.18v1.99Z"/>
        <path class="cls-1" d="M12.35,10.9s.18-.6.18-.78c0-.12-.12-.6.36-.3.48.3.36.66.24.91-.06.24-.36,1.02-.48,1.33l-.54,1.5s-.06.12-.06.18c-.06,0-.24.78-.18,1.69l.12.96s0,.06.12,0c0,0,.12-.06,0-.54,0,0,0-1.02.06-1.2,0-.24.12-.9.18-.96.06-.12.06-.18.18-.48.06-.3.42-1.14.42-1.14,0,0,.48-.96.54-1.27,0,0,.18-.48.18-1.2,0,0-.06-.18,0-.24.12-.12.42,0,.6.06.12.12.36.36.3.72,0,.3-.18.84-.36,1.39,0,0-.18.42-.3.54-.06.12-.54,1.2-.54,1.26-.06.06-.06.12-.12.18,0,0-.24.72-.24.96-.06.24-.12.48-.18,1.02-.06.54.12,1.26.12,1.26,0,0,.06.12.12.12s.06-.3.06-.3v-.42c-.06-.12,0-1.02,0-1.02,0,0,.06-.66.24-1.09.06-.11.12-.42.24-.66.12-.36.3-.66.3-.66,0,0,.54-1.27.6-1.33,0-.12.3-.84.3-1.26,0-.36.12-.6.12-.6,0,0-.06-.3.3-.12.36.18.54.48.6.72,0,0,.06.3-.06.36-.12.06-.18-.06-.24.06,0,0-.12,0-.12.18,0,.06-.06.42-.12.48,0,.12,0,.24-.06.54-.12.3-.42,1.2-.42,1.26,0,0-.24.6-.24.66,0,.06-.06.12-.12.18,0,.06-.24,1.02-.3,1.27,0,.24-.06.66-.06.9,0,.3.06.6.12.85,0,0,.06.06.12.06.12-.06-.06-.36,0-.84.06-.48.12-1.08.18-1.27,0-.18.3-1.08.3-1.08.06-.06.36-.96.42-1.14.06-.12.3-.96.36-1.14,0-.12,0-.54.42-.6.42.12.42.9.36,1.21,0,0-.06.78-.36,1.44l-.24.6c0,.06.06.66.06.91s0,.42-.12.96c-.12.48-.06.54,0,.6.06.12.3.48.36.67.06.24.12.66.18.72,0,.06.3.36.48.6.06.18.42.72.42.78.06.06,1.08,1.44,1.38,1.92.3.54.54,1.03.54,1.51-.06.36-.18.73-.42,1.02-.06.12-.24.3-.36.36-.06.06-.3.12-.3.3l-.24.91h-4.03l.84-1.57s.3-.18-.3-.96c-.66-.72-1.69-2.65-1.69-2.65,0,0-.97-1.62-1.14-1.99-.3-.42-.24-2.65-.24-3.31,0,0-.12-.85.3-1.92.48-1.02.84-2.05.84-2.05Z"/>
        <path class="cls-1" d="M26.19,10.9s-.12-.6-.12-.78c0-.12.06-.6-.42-.3-.48.3-.3.66-.24.91.12.24.36,1.02.54,1.33l.54,1.5v.18c.06,0,.24.78.18,1.69l-.12.96s0,.06-.06,0c0,0-.12-.06-.06-.54v-1.2c-.06-.24-.12-.9-.18-.96-.06-.12-.12-.18-.18-.48-.12-.3-.48-1.14-.48-1.14,0,0-.42-.96-.48-1.27,0,0-.24-.48-.18-1.2,0,0,.06-.18-.06-.24-.06-.12-.42,0-.54.06-.12.12-.36.36-.36.72.06.3.18.84.42,1.39,0,0,.18.42.24.54.12.12.54,1.2.6,1.26,0,.06.06.12.06.18,0,0,.24.72.3.96,0,.24.12.48.18,1.02,0,.54-.18,1.26-.18,1.26,0,0,0,.12-.12.12-.06,0-.06-.3-.06-.3,0-.06,0-.3.06-.42v-1.02s-.12-.66-.3-1.09c0-.11-.12-.42-.18-.66-.18-.36-.36-.66-.36-.66,0,0-.54-1.27-.54-1.33-.06-.12-.36-.84-.36-1.26,0-.36-.06-.6-.06-.6,0,0,.06-.3-.3-.12-.36.18-.6.48-.6.72,0,0-.06.3.06.36.12.06.18-.06.24.06,0,0,.06,0,.06.18,0,.06.12.42.12.48.06.12,0,.24.06.54.12.3.42,1.2.48,1.26,0,0,.18.6.24.66,0,.06,0,.12.06.18,0,.06.3,1.02.3,1.27.06.24.12.66.12.9-.06.3-.06.6-.12.85,0,0-.06.06-.12.06-.12-.06,0-.36,0-.84-.06-.48-.18-1.08-.24-1.27,0-.18-.3-1.08-.3-1.08,0-.06-.3-.96-.42-1.14,0-.12-.24-.96-.3-1.14-.06-.12-.06-.54-.48-.6-.42.12-.36.9-.36,1.21,0,0,.13.78.36,1.44.3.6.24.6.24.6,0,.06-.06.66,0,.91,0,.24-.06.42.06.96.18.48.06.54.06.6-.06.12-.36.48-.42.67-.06.24-.12.66-.12.72-.06.06-.36.36-.48.6-.12.18-.42.72-.48.78,0,.06-1.08,1.44-1.38,1.92-.24.54-.48,1.03-.48,1.51,0,.36.18.73.42,1.02.06.12.18.3.36.36.06.06.24.12.3.3l.18.91h4.09l-.84-1.57s-.36-.18.3-.96c.6-.72,1.68-2.65,1.68-2.65,0,0,.96-1.62,1.14-1.99.3-.42.24-2.65.24-3.31,0,0,.06-.85-.36-1.92-.42-1.02-.84-2.05-.84-2.05Z"/>
        <path class="cls-1" d="M19.33,4.51h-.72c-2.65,0-5.3,1.2-7.35,3.43-1.81,1.93-2.89,4.28-2.89,6.2v10.06c0,1.87,1.08,4.28,2.83,6.2,1.99,2.17,4.58,3.43,7.23,3.43h.9v-.36h-.9c-2.53,0-5.06-1.14-6.98-3.31-.72-.78-1.32-1.62-1.75-2.47-.48-.96-.36-2.47-.36-3.61v-10.06c0-1.08-.18-2.4.6-3.79,1.62-2.71,4.76-5.42,8.67-5.42h.72v-.3h0ZM19.33,33.84v-.36h.72c2.59,0,5.06-1.14,7.05-3.31.73-.78,1.26-1.62,1.69-2.53.6-1.21.48-2.41.48-3.56v-10.06c0-.84.18-1.92-.36-3.07-1.51-2.95-4.76-6.14-9.03-6.14h-.54v-.3h.54c2.71,0,5.3,1.2,7.41,3.43,1.75,1.93,2.89,4.28,2.89,6.08v10.06c0,1.99-1.08,4.4-2.83,6.32-2.05,2.17-4.58,3.43-7.29,3.43h-.72Z"/>
        <path class="cls-1" d="M17.94,27.52c0,.12-.12.18-.18.18-.12,0-.18-.06-.18-.18,0-.06.06-.12.18-.12.06,0,.18.06.18.12Z"/>
        <path class="cls-1" d="M15.36,29.2v-.3l.18.18c-.06.06-.12.06-.18.12h0ZM15.36,28.48l.42.12-.24,1.15.42.06.36-1.74c.12.06.24.12.42.12l-.12.6s-.18-.06-.24.18c-.06.18.18.42.3.54.18.19.3-.18.3-.18h.3v-.48h-.24l.12-.6h.12v-.3h-.24c-.18-.06-.36-.12-.6-.12l-.24-.48-.42-.06.24.42c-.12-.06-.18-.06-.18-.06l-.06.3s.06.06.12.06l-.06.24-.36-.06c.12-.12.24-.24.24-.42s-.18-.36-.36-.42v1.15h0ZM18.12,28l-.06.36h-.12l-.18,1.69-.36-.06v-.66h-.12v-.48h.18v-.54s-.12-.06-.18-.06v-.3c.36.06.84.06.84.06ZM15.23,27.28h0c-.3,0-.48.24-.48.48,0,.12,0,.24.06.3-.06,0-.18.06-.18.12-.12.06-.36.3-.3.6.06.36.42.54.48.54h.06c.06,0,.06.23.06.23l.3.06v-.78c-.06.06-.12.06-.18.06-.06.06-.18,0-.24-.12-.18-.18.12-.48.36-.36h.06v-.54c-.06,0-.12-.06-.12-.12s.06-.12.12-.12v-.36h0ZM15.36,27.34v1.15l-.12-.06v-.54h.06c0-.06.06-.06.06-.12s-.06-.12-.12-.12v-.36c.06,0,.12.06.12.06h0ZM15.36,28.9v.3s0,.06-.06.06v.36h-.06v-.78h.12v.06Z"/>
        <path class="cls-1" d="M11.62,25.83c-.18-.12-.24-.18-.24-.18l-.24.24s.12.06.24.18c0,.06.06.42-.36.3h-.18s-.3.54.06.96c.18.31.6.24.6.24l-.24.42.36.24v-1.08c-.06.06-.18.06-.36-.06-.18-.18-.06-.3-.06-.3.24,0,.36-.06.42-.18v-.78h0ZM14.63,27.64h-.18l-.6,1.62-.36-.12.61-1.69c-.06,0-.18-.06-.25-.12,0,.18-.06.66-.36.91-.36.36-.6.12-.66-.18-.06-.3.24-.36.24-.36,0,0,.18,0,.24.12,0,0,.24-.12.06-.66-.06-.06-.18-.06-.3-.12l-.84,1.56-.36-.18.84-1.57c-.06-.06-.12-.12-.24-.18l-.85,1.5v-1.02c.06,0,.12-.06.12-.06l.36-.6c-.12-.06-.24-.18-.36-.18,0,.06,0,.18-.12.3v-.78c.24.18.66.42,1.15.66l-.12-.54.36.18.12.54c.78.42,1.57.72,1.57.72l-.06.24Z"/>
        <path class="cls-1" d="M19.33,28.54c-.42,0-.72.3-.72.6,0,.36.3.66.72.66v-.36c-.18-.06-.3-.12-.3-.3,0-.12.12-.18.3-.24v-.36h0ZM19.33,28.06h-.54v.3s.18,0,.54-.06v-.24h0ZM24.15,27.1v.3c-.12.06-.18.06-.3.12.06.06.18.24.18.42-.06.24-.18.36-.18.36,0,0,.06.18.3.18v.42c-.12,0-.18-.06-.3-.06-.36-.06-.66-.48-.66-.48l.12-.12s.18,0,.24-.3c0-.12-.18-.24-.24-.24-.12.06-.3.06-.42.12l.18.66.18-.06.24.42-.24.12c0,.18-.18.24-.18.24-.06,0-.24-.06-.48-.18-.24-.12-.06-.3-.06-.3l.18-.12s-.18-.54-.24-.66c-.12,0-.24.06-.36.06l.42,1.75-.42.06-.49-1.74c-.06.06-.18.06-.24.06l.06.54-.6.12s-.06.06-.06.12c0,.06.18,0,.18,0,0,0,.3-.12.48,0,.24.18.54.3.24.9,0,0-.06.06-.18.12l-.24-.24s.24-.24,0-.36c-.24-.12-.42.12-.42.18-.06.06-.18.3.18.42l.18.06-.06.3s-.73-.06-.78-.54c-.06-.3.12-.55.12-.55,0,0-.3-.24-.18-.48.06-.18.12-.3.3-.3.18-.06.42-.06.42-.06l-.06-.18c-.36.06-.73.06-1.02.12l.12,1.81h-.42v-.36c-.12.06-.18.06-.3.06h0v-.36h0c.12,0,.18-.06.24-.06l-.06-.42c0-.06-.12-.06-.18-.06h0v-.36h0c.06,0,.12,0,.18-.06v-.18h-.18v-.24c.78-.06,2.47-.18,4.03-.66.24-.12.48-.24.78-.3h0ZM26.86,25.59c-.54.36-1.57.96-2.71,1.5v.3l.3.6c0,.18-.06.42-.3.42v.48c.18,0,.42-.06.54-.3l.24.42.36-.12-.72-1.68c.3-.12.6-.3.84-.42l.06.06s-.12.12-.3.24c-.18.06-.24.18-.18.42,0,.24.36.36.36.36,0,0-.06.24.06.54.24.42.9.24.9.24l-.06-.3-.18.06c-.31-.06-.31-.3-.31-.42,0-.06.06-.36.36-.3.24,0,.12.36.12.36l.24.12c.12-.06.18-.18.18-.18,0-.6-.3-.66-.54-.72-.24-.06-.48.18-.48.18,0,0-.12.06-.18,0,0-.06.06-.12.06-.12l.54-.36-.31-.48c.18,0,.24-.12.36-.18.06.12.36.54.36.54,0,.06-.12.06-.06.24.06.12.24.18.42.18v-.72l-.36-.48c.12-.06.18-.12.3-.18l.06.06v-.36h0ZM27.94,27.28l-.48-.54-.3.24s.06.3-.18.3h-.12v-.72.06l.3-.24-.3-.42v-.36c.24-.18.36-.3.36-.3l.12.18s-.06.06-.18.12l1.02,1.44-.24.24Z"/>
        <path class="cls-1" d="M28.12,27.28l.36-.18s.12-.06.12,0c.06.06,0,.06,0,.06,0,0-.3.3-.36.3h-.12s-.06-.12,0-.18Z"/>
        <path class="cls-3" d="M38.12,39.98h-.42v.54h1.26v3.49h.78v-3.49h4.21v1.75c-.12.12-.3.24-.48.3-.12.06-.18.06-.3.06l-.18.06h-.12c-.12,0-.24,0-.42-.06-.3-.12-.48-.3-.48-.61,0-.12.06-.18.06-.24.12-.18.24-.3.42-.36.06,0,.18-.06.36-.06l.24.06.3.06h.06l.3.18-.18-.72h-.42l-.18-.06h-.18c-.42,0-.78.12-1.09.36-.3.24-.48.54-.48.84,0,.18.06.3.12.48.12.12.24.24.42.3.3.24.72.36,1.14.36l.36-.06.36-.06.24-.12s.06-.06.12-.06v1.08h.72v-3.49h4.7v.78h-3.07c-.24.12-.24.24-.24.36h0c0,.06.06.18.12.24.12.18.24.25.36.36l.42.3c.12.06.24.12.31.12h.12l.12-.12.06-.12v-.6h1.8v2.17h.72v-3.49h.9v-.54h-11.44c-.06-.06-.36-.42-.36-.42l-.3-.3c-.24-.24-.48-.48-.84-.66-.12-.06-.25-.06-.36-.12v.6c.12.06.24.12.36.24.48.37.66.61.78.67h-.72ZM37.7,39.98h-.78v-.06l-.18-.12-.06-.24-.06-.12v-.12c.06-.12.12-.18.18-.24.06-.12.24-.18.42-.18s.3.06.48.18v-.6c-.12-.06-.3-.06-.48-.06-.6,0-1.02.25-1.26.66-.12.18-.12.3-.12.42v.18l.12.18.06.12h-4.94v.54h5.42v.72h-2.71l.24.18.12.12.31.3c.06.06.17.24.3.36,0,.12.06.24.06.36s-.06.24-.12.3c-.12.12-.24.18-.42.18-.36,0-.72-.18-1.03-.48-.3-.3-.48-.6-.66-.9l-.18-.42v-.3l-.72.36.06.3.24.36c.24.42.48.72.79,1.02.48.36.96.54,1.44.54.18,0,.36,0,.54-.05.36-.12.6-.3.72-.54.06-.12.06-.24.06-.36v-.24l-.12-.3s-.18-.24-.24-.3h1.33v2.29h.78v-3.49h.42v-.54Z"/>
        <path class="cls-3" d="M25.35,40.53h-1.15v-.54h2.71v.54h-.78v3.49h-.78v-1.08c-.3.18-.72.3-1.15.3h0v-.54c.24,0,.42-.06.66-.12.12-.06.24-.12.3-.18l.18-.18v-1.69ZM24.21,40.53h-.36l.06.06.18.3.06.3h0c0,.36-.24.66-.66.84l-.3.06s-.12.07-.18.07v.06h.06c.18.36.54.48,1.02.48h.12v.54c-.6-.06-1.08-.18-1.45-.42-.48-.24-.72-.66-.72-1.08v-.12l.24.06h.24c.24,0,.48,0,.6-.12.18-.06.24-.18.24-.36,0-.12-.06-.24-.24-.48,0,0-.18-.12-.24-.18h-2.29v3.49h-.78v-3.49h-1.27v-.54h1.08c-.06-.06-.24-.3-.72-.67-.12-.12-.24-.18-.36-.24v-.6c.12.06.24.06.3.12.36.18.66.42.9.66l.3.3s.3.36.36.42h3.8v.54ZM18.55,38.48v.6c-.18-.12-.36-.18-.48-.18-.24,0-.36.06-.48.18-.06.06-.12.12-.12.24v.24l.12.24.12.12.06.06h.78v.54h-.48v3.49h-.72v-2.47h-1.87c-.12,0-.24,0-.37.06-.12,0-.18.06-.24.18,0,.06-.06.12-.06.12,0,.36.18.66.42.97.3.3.54.54.78.6l.12.05.3.06-.6.42h-.06l-.18-.06-.3-.24-.42-.3s-.18-.18-.18-.24l-.18-.18c-.3-.36-.48-.72-.48-1.09,0-.24.12-.42.3-.6.06-.06.18-.18.36-.18.12-.06.3-.12.42-.12h2.23v-.48h-4.52v.84c0,.36-.3.66-.84.79-.12.06-.3.06-.42.06h-.12c.24.24.54.54.54.54l.3.24.54.42.36.24-.54.36h-.06c-.12-.06-.36-.18-.6-.42-.36-.3-.72-.6-1.08-.96l-.3-.36-.3-.36-.24-.24-.3-.36.66-.36.48.6c.06.12.24.18.48.18s.42-.06.48-.12c.12-.06.18-.18.18-.24v-.84h-3.49v3.49h-.78v-3.49h-1.8v3.49h-.79v-1.86h-1.45v.72l-.18.06h-.12c-.12,0-.18,0-.3-.06-.24-.12-.36-.24-.48-.36l-.42-.3c-.12-.12-.18-.18-.18-.24v-.06l.06-.12.12-.06.12-.06h.61v-.96s0-.06-.06-.12c-.06-.06-.18-.06-.3-.06h-.18l-.12.06q-.06.06-.12.12v.12c0,.06.06.12.06.12h0c0,.06.18.24.18.24h-.78l-.12-.12h0v-.06l-.06-.12v-.06c0-.18,0-.48.36-.66.24-.12.48-.18.78-.18.54,0,.9.18,1.08.42.06.12.06.24.06.36v.91h1.45v-1.14h-1.02v-.54h12.71l-.12-.12-.06-.18v-.18c-.06-.12,0-.24.06-.42.24-.42.66-.66,1.32-.66.12,0,.3,0,.48.06Z"/>
        <path class="cls-3" d="M65.4,42.16v-.55h.84v-1.08h-.84v-.54h5v.54h-1.08v3.49h-.72v-3.49h-1.56v3.49h-.78v-1.86h-.84ZM65.4,39.98v.54h-.84v1.08h.84v.55h-.84v.48h0v.06s-.06.06-.06.12h-.12l-.18.06c-.12,0-.3-.06-.48-.24l-.54-.42c-.06-.12-.12-.18-.12-.3h0v-.12h0l.06-.06.12-.06.06-.06h.48v-1.08h-2.11v3.49h-.78v-3.49h-1.26v-.54h1.14c-.12-.06-.3-.3-.78-.67-.12-.12-.24-.18-.36-.24v-.6c.12.06.24.06.36.12.36.18.66.42.84.66l.36.3s.24.36.3.42h3.91ZM57.27,42.21c.3.18.6.3.72.36v.06c-.06,0-.3.06-.3.06,0,0-.06.06-.12.06h-.12c-.06,0-.12,0-.18-.06v.54h.48l.3-.06.3-.12s.06,0,.06-.06v1.02h.78v-3.49h.42v-.54h-.78v-.06l-.12-.12-.12-.24-.06-.12v-.12c.06-.12.12-.18.18-.24.12-.12.24-.18.42-.18s.3.06.48.18v-.6c-.12-.06-.3-.06-.48-.06-.6,0-1.02.25-1.27.66-.06.18-.12.3-.12.42l.06.18.06.18.06.12h-.66v.54h1.15v1.69h0c-.12-.06-.72-.36-1.15-.54v.54h0ZM57.27,41.49v-.54h.6l.06.06h.12l.18.73-.24-.24h-.18l-.24-.06h-.24l-.06.06ZM56.54,41.91v-.06c.06.06.36.18.72.36v-.54c-.12-.06-.24-.12-.3-.12.06,0,.18-.06.18-.06h.12v-.54c-.18,0-.36,0-.54.06-.18.06-.36.12-.48.24-.36.24-.54.48-.54.84,0,.18.06.3.18.48.06.12.18.24.42.36.24.18.6.3.96.3v-.54h-.18c-.12-.06-.24-.12-.3-.18-.18-.12-.3-.24-.3-.36v-.13c0-.06.06-.12.06-.12h0ZM57.27,39.98v.54h-2.23v-.54h2.23Z"/>
        <path class="cls-3" d="M91.77,40.53v1.08h-.84v.55h.84v1.86h.78v-3.49h.78v-.54h-2.41v.54h.84ZM90.93,41.61h-.84v-1.08h.84v-.54h-10.12l-.24-.18-.3-.24-.78-.42c-.24-.12-.48-.24-.78-.36-.3-.12-.6-.24-.9-.3v.55c.18.06.36.12.48.18l.66.3.24.12.36.24.18.12h-1.92v.54h2.95v.78h-2.95v.85c.06.06.12.06.12.12l.42.3c.12.06.24.12.3.12h.12l.12-.12.06-.12.06-.06v-.54h1.75v2.17h.78v-3.49h2.41v.96h-.72l-.12.12h0l-.06.12c0,.12.06.18.18.3.18.24.42.49.78.61.18.12.3.12.36.12l.18-.06h0c.12,0,.12-.06.18-.18h0v-1.99h1.45v3.49h.78v-3.49h2.35v1.08h-.48l-.06.06-.12.06-.06.06h0l-.06.12h0c.06.12.06.18.18.3l.54.42c.18.18.36.24.48.24l.18-.06h.12c0-.06.06-.12.06-.12v-.06h0v-.48h.84v-.55ZM77.8,38.48v.55c-.12,0-.18-.06-.31-.06-.24-.06-.48-.12-.66-.12-.12,0-.3.06-.36.06-.24.06-.42.18-.54.36-.06.12-.06.24-.06.3v.3l.06.12h1.87v.54h-1.75v3.49h-.78v-3.49h-.97v-.54h.91v-.12l-.06-.18v-.24c0-.18.06-.42.24-.6.24-.18.48-.36.78-.42.24-.06.48-.06.72-.06s.6,0,.9.12h0ZM77.8,41.31h-.12c-.18.12-.24.24-.24.36h0c0,.06.06.18.18.24.06.12.12.18.18.25v-.85Z"/>
      </g>
    </g>
  </g>
</svg>