<?xml version="1.0" encoding="UTF-8"?>
<svg id="Layer_2" data-name="Layer 2" xmlns="http://www.w3.org/2000/svg" viewBox="0 0 198.66 39.47">
  <defs>
    <style>
      .cls-1 {
        fill-rule: evenodd;
      }

      .cls-1, .cls-2, .cls-3 {
        stroke-width: 0px;
      }

      .cls-1, .cls-3 {
        fill: #fff;
      }

      .cls-2 {
        fill: #2b3a90;
      }
    </style>
  </defs>
  <g id="Layer_2-2" data-name="Layer 2">
    <g>
      <rect class="cls-2" width="198.66" height="39.47"/>
      <g>
        <path class="cls-1" d="M19.66,9.87c-2.89,2.57-6.18,4.48-9.71,6.02l12.55,8.99-.7.34-5.2-3.45c-1.69-1.12-5.89-.34-6.73,1.09l9.65,6.76c2.67-2.57,5.95-4.61,9.76-6.16l-12.69-8.84.67-.53,4.11,2.94c2.05,1.47,3.68,1.85,8.09-.32l-9.8-6.83Z"/>
        <g>
          <g>
            <polygon class="cls-3" points="39.33 14.8 44.82 14.8 46.44 20.53 46.47 20.53 48.08 14.8 53.57 14.8 53.57 24.67 50.03 24.67 50.03 17.62 50 17.62 47.93 24.67 44.97 24.67 42.9 17.62 42.87 17.62 42.87 24.67 39.33 24.67 39.33 14.8"/>
            <path class="cls-3" d="M60.68,17.78h-.03l-1.16,3.35h2.35l-1.16-3.35ZM58.27,14.8h4.78l4.2,9.87h-4.15l-.41-1.13h-4.07l-.41,1.13h-4.14l4.2-9.87Z"/>
            <path class="cls-3" d="M80.7,14.8h3.9v5.97c0,1.27.73,1.67,2.01,1.67s2-.4,2-1.67v-5.97h3.9v6.12c0,3.14-1.9,4.09-5.9,4.09s-5.9-.95-5.9-4.09v-6.12Z"/>
            <polygon class="cls-3" points="96.9 17.29 93.29 17.29 93.29 14.8 104.41 14.8 104.41 17.29 100.8 17.29 100.8 24.67 96.9 24.67 96.9 17.29"/>
            <rect class="cls-3" x="105.23" y="14.8" width="3.9" height="9.87"/>
            <path class="cls-3" d="M71.56,17.29h2.71c.65,0,1.14.18,1.14.93,0,.62-.32.93-1.08.93h-2.77v-1.85ZM80.48,24.67l-3.32-3.09c2.73-.43,2.38-3.11,2.38-4.03,0-1.08-.61-2.03-1.34-2.39-.54-.26-1.22-.36-2.34-.36h-8.21v9.87h3.9v-3.04h.68l3.26,3.04h4.98Z"/>
          </g>
          <g>
            <path class="cls-3" d="M121.83,20.48c-1.91-.29-2.7-1.4-2.7-2.78,0-2.56,2.5-3.25,5.71-3.25,4.4,0,6.21,1.15,6.34,3.23h-4.53c0-.4-.24-.65-.59-.79-.35-.15-.79-.21-1.22-.21-1.16,0-1.56.29-1.56.7,0,.28.12.46.51.51l4.66.69c1.96.29,3.18,1.2,3.18,2.88,0,2.41-1.96,3.54-6.35,3.54-3,0-6.28-.41-6.29-3.32h4.7c.01.33.14.56.41.71.29.14.72.2,1.33.2,1.21,0,1.55-.33,1.55-.8,0-.29-.18-.58-.71-.67l-4.45-.66Z"/>
            <path class="cls-3" d="M132.71,14.8h3.9v5.97c0,1.27.73,1.67,2.01,1.67s2-.4,2-1.67v-5.97h3.9v6.12c0,3.14-1.89,4.09-5.9,4.09s-5.91-.95-5.91-4.09v-6.12Z"/>
            <polygon class="cls-3" points="145.57 22.58 151.48 17.29 145.97 17.29 145.97 14.8 156.73 14.8 156.73 16.95 150.96 22.18 156.58 22.18 156.58 24.67 145.57 24.67 145.57 22.58"/>
            <path class="cls-3" d="M157.78,14.8h3.9v5.97c0,1.27.73,1.67,2.01,1.67s2-.4,2-1.67v-5.97h3.9v6.12c0,3.14-1.9,4.09-5.9,4.09s-5.91-.95-5.91-4.09v-6.12Z"/>
            <rect class="cls-3" x="184.89" y="14.8" width="3.9" height="9.87"/>
            <polygon class="cls-1" points="171.29 24.67 175.08 24.67 175.01 21.13 178.8 24.67 183.79 24.67 178.37 19.63 184.07 14.8 179.33 14.8 175.08 18.22 175.08 14.8 171.29 14.8 171.29 24.67"/>
          </g>
        </g>
      </g>
    </g>
  </g>
</svg>