<?xml version="1.0" encoding="UTF-8"?>
<svg id="Layer_2" data-name="Layer 2" xmlns="http://www.w3.org/2000/svg" viewBox="0 0 163.45 63.12">
  <defs>
    <style>
      .cls-1 {
        fill: #8c8e90;
      }

      .cls-1, .cls-2, .cls-3, .cls-4, .cls-5, .cls-6 {
        stroke-width: 0px;
      }

      .cls-1, .cls-3, .cls-4, .cls-5, .cls-6 {
        fill-rule: evenodd;
      }

      .cls-2 {
        fill: #1c478d;
      }

      .cls-3 {
        fill: #aa1f25;
      }

      .cls-4 {
        fill: #6e6f71;
      }

      .cls-5 {
        fill: #b7b7b9;
      }

      .cls-6 {
        fill: #e32533;
      }
    </style>
  </defs>
  <g id="Layer_2-2" data-name="Layer 2">
    <g id="Color_Logo" data-name="Color Logo">
      <g>
        <path class="cls-2" d="M42.34,21.2h-5.95v-4.87h17.92v4.87h-5.95v16.78h-6.01v-16.78Z"/>
        <path class="cls-2" d="M57.32,16.33h6.02v21.65h-6.02v-21.65Z"/>
        <path class="cls-2" d="M93.08,16.33h15.18v4.87h-9.39v3.56h7.83v4.62h-7.83v3.72h9.39v4.87h-15.18v-21.65Z"/>
        <path class="cls-2" d="M109.87,34.29l4.2-3.15c1.05,1.31,2.36,2.36,4.52,2.36,1.72,0,2.74-.51,2.74-1.72,0-.92-.7-1.37-2.13-1.85l-2.55-.86c-3.15-1.05-5.38-2.96-5.38-6.52,0-4.27,3.53-6.46,7.39-6.46s6.11,1.37,7.39,2.87l-3.31,3.47c-.89-.92-2.04-1.56-3.76-1.56-1.4,0-2.1.64-2.1,1.5s.48,1.24,1.53,1.59l2.86.96c4.33,1.43,5.8,3.5,5.8,6.56,0,3.98-2.48,6.84-8.21,6.84-4.87,0-7.64-2.23-8.98-4.01Z"/>
        <path class="cls-2" d="M66.35,16.41c.03-.22.14-.18.27-.02l11.59,11.59s8.69-8.69,11.58-11.59c.16-.16.24-.2.27.02v21.57h-5.7v-9.23s-6,6.53-6,6.53c-.09.09-.19.09-.29,0l-6.06-6.56v9.26h-5.67v-21.57Z"/>
        <polygon class="cls-1" points="78.21 15.81 86.12 7.91 90.07 11.86 78.21 23.72 78.21 23.72 76.14 19.1 78.21 15.81"/>
        <polygon class="cls-4" points="78.21 7.91 82.16 3.95 86.12 7.91 78.21 15.81 78.21 15.81 76.14 11.39 78.21 7.91"/>
        <polygon class="cls-3" points="78.21 7.91 76.14 3.95 78.21 0 82.16 3.95 78.21 7.91 78.21 7.91"/>
        <polygon class="cls-5" points="78.21 15.81 70.3 7.91 66.35 11.86 78.21 23.72 78.21 23.72 78.21 15.81"/>
        <polygon class="cls-1" points="78.21 7.91 74.26 3.95 70.3 7.91 78.21 15.81 78.21 15.81 78.21 7.91"/>
        <polygon class="cls-6" points="78.21 7.91 78.21 0 74.26 3.95 78.21 7.91 78.21 7.91"/>
      </g>
      <g>
        <path class="cls-2" d="M0,41.44h6.02v21.65H0v-21.65Z"/>
        <path class="cls-2" d="M87.33,41.41h15.18v4.87h-9.39v3.56h7.83v4.62h-7.83v3.72h9.39v4.87h-15.18v-21.65Z"/>
        <path class="cls-2" d="M148.26,41.41h15.18v4.87h-9.39v3.56h7.83v4.62h-7.83v3.72h9.39v4.87h-15.18v-21.65Z"/>
        <path class="cls-2" d="M31.93,41.44h15.18v4.87h-9.39v3.56h7.83v4.62h-7.83v8.59s-5.79,0-5.79,0v-21.65Z"/>
        <path class="cls-2" d="M111.03,52.3v10.79h-5.44v-21.49c0-.19.09-.35.45-.06l13.59,10.76v-10.86h5.44v21.41c0,.26-.09.35-.45.06l-13.59-10.62Z"/>
        <path class="cls-2" d="M14.55,52.32v10.79h-5.44v-21.49c0-.19.09-.35.45-.06l13.59,10.76v-10.86h5.44v21.41c0,.26-.09.35-.45.06l-13.59-10.62Z"/>
        <path class="cls-2" d="M55.46,58.21h8.89v4.87h-14.68v-21.65h5.79v16.78Z"/>
        <path class="cls-2" d="M78.83,41.41v11.46c-.03,2.75-.86,5.36-3.54,5.36s-3.5-2.6-3.54-5.35v-11.48h-6.02v11.4l.02.47c.23,5.7,3.34,9.83,9.54,9.83s9.31-4.13,9.54-9.83l.02-.47v-11.4h-6.02Z"/>
        <path class="cls-2" d="M138.22,58.15c-3.43,0-5.39-2.61-5.39-5.93s1.96-5.9,5.39-5.9c1.83,0,3.23.74,4.15,1.92l3.68-3.68c-2.02-1.98-4.82-3.15-7.83-3.15-5.91,0-11,4.44-11,10.81s5.09,10.84,11,10.84c3.01,0,5.81-1.17,7.83-3.15l-3.68-3.68c-.92,1.19-2.32,1.93-4.14,1.93Z"/>
      </g>
    </g>
  </g>
</svg>